<?xml version="1.0" encoding="utf-8"?>
<!-- Generator: Adobe Illustrator 17.0.0, SVG Export Plug-In . SVG Version: 6.00 Build 0)  -->
<!DOCTYPE svg PUBLIC "-//W3C//DTD SVG 1.1//EN" "http://www.w3.org/Graphics/SVG/1.1/DTD/svg11.dtd">
<svg version="1.1" id="Layer_1" xmlns="http://www.w3.org/2000/svg" xmlns:xlink="http://www.w3.org/1999/xlink" x="0px" y="0px"
	 width="1190.55px" height="1093.89px" viewBox="0 0 1190.55 1093.89" enable-background="new 0 0 1190.55 1093.89"
	 xml:space="preserve">
<g>
	<defs>
		<rect id="SVGID_1_" x="-0.357" y="0" width="1190.907" height="1093.89"/>
	</defs>
	<clipPath id="SVGID_2_">
		<use xlink:href="#SVGID_1_"  overflow="visible"/>
	</clipPath>
	<g clip-path="url(#SVGID_2_)">
		<g>
			<rect x="55.31" y="87.679" fill="#B5C49B" width="86.887" height="34.799"/>
			<rect x="29.393" y="254.446" fill="#B5C49B" width="86.887" height="34.799"/>
			<rect x="13.708" y="35.481" fill="#B5C49B" width="86.887" height="34.799"/>
			<rect x="297.65" y="52.88" fill="#B5C49B" width="86.887" height="34.798"/>
			<rect x="797.844" y="70.28" fill="#B5C49B" width="86.887" height="34.798"/>
			<rect x="936.692" y="185.41" fill="#B5C49B" width="86.886" height="34.799"/>
			<rect x="1073.046" y="35.481" fill="#B5C49B" width="86.886" height="34.799"/>
			<rect x="1029.604" y="263.046" fill="#B5C49B" width="86.887" height="34.798"/>
			<rect x="1073.046" y="327.542" fill="#B5C49B" width="86.886" height="34.799"/>
			<rect x="781.402" y="336.997" fill="#B5C49B" width="86.886" height="34.798"/>
			<rect x="684.723" y="367.743" fill="#B5C49B" width="86.886" height="34.799"/>
			<rect x="55.311" y="374.229" fill="#B5C49B" width="86.886" height="34.799"/>
			<rect x="13.709" y="516.146" fill="#B5C49B" width="86.886" height="34.798"/>
			<rect x="72.836" y="627.418" fill="#B5C49B" width="86.886" height="34.798"/>
			<rect x="909.654" y="485.593" fill="#B5C49B" width="86.886" height="34.798"/>
			<rect x="1067.023" y="517.438" fill="#B5C49B" width="86.886" height="34.798"/>
			<rect x="980.137" y="610.439" fill="#B5C49B" width="86.887" height="34.798"/>
			<rect x="1095.058" y="646.965" fill="#B5C49B" width="86.886" height="34.798"/>
			<rect x="755.94" y="245.647" fill="#B5C49B" width="86.886" height="34.798"/>
			<rect x="687.531" y="185.41" fill="#B5C49B" width="86.886" height="34.799"/>
			<rect x="501.645" y="46.962" fill="#B5C49B" width="86.886" height="34.799"/>
			<rect x="1008.172" y="405.031" fill="#B5C49B" width="86.886" height="34.799"/>
			<rect x="909.654" y="292.247" fill="#B5C49B" width="86.886" height="34.799"/>
			<rect x="1073.046" y="124.463" fill="#B5C49B" width="86.886" height="34.799"/>
			<rect x="702.265" y="124.463" fill="#B5C49B" width="86.886" height="34.799"/>
		</g>
		<rect x="0.804" y="787.468" fill="#9B8B62" width="1189.746" height="306.422"/>
	</g>
	<g clip-path="url(#SVGID_2_)">
		<rect x="176" y="102" fill="#824900" width="827" height="371"/>
		<rect x="184" y="120" fill="#1E563B" width="805" height="335"/>
		<path fill="#824900" d="M1066,487.906c0,2.795-3.859,5.094-8.661,5.094H124.973c-4.8,0-8.973-2.299-8.973-5.094v-24.042
			c0-2.795,4.173-4.863,8.973-4.863h932.366c4.802,0,8.661,2.068,8.661,4.863V487.906z"/>
		<path fill="#FFFFFF" d="M349,453.74c0,2.795-3.718,5.26-8.519,5.26h-80.414c-4.801,0-8.067-2.464-8.067-5.26v-2.531
			c0-2.795,3.267-5.21,8.067-5.21h80.414c4.801,0,8.519,2.414,8.519,5.21V453.74z"/>
		<g>
			<g opacity="0.7">
				<path fill="#FFFFFF" d="M366.017,257.608v-98.827h23.148c6.107,0,11.615,1.551,16.523,4.65
					c4.199,2.627,7.198,6.699,8.997,12.215c0.982,2.944,1.473,6.437,1.473,10.482c0,6.62-1.827,11.928-5.48,15.919
					c-1.527,1.683-3.327,2.969-5.398,3.863c3.435,1.259,6.352,3.755,8.752,7.485c1.581,2.523,2.753,5.78,3.517,9.774
					c0.38,2.049,0.573,4.333,0.573,6.856c0,6.253-1.228,11.558-3.681,15.918c-1.909,3.417-4.609,6.148-8.098,8.196
					c-3.926,2.313-7.826,3.468-11.697,3.468H366.017z M382.703,199.131h6.462c4.798,0,8.017-2.258,9.652-6.776
					c0.599-1.681,0.9-3.757,0.9-6.227c0-4.098-1.037-7.199-3.108-9.298c-1.91-1.943-4.391-2.917-7.444-2.917h-6.462V199.131z
					 M382.703,242.872h6.462c5.235,0,8.861-2.602,10.879-7.802c0.708-1.786,1.064-3.835,1.064-6.148
					c0-5.515-1.092-9.535-3.272-12.058c-1.963-2.31-4.854-3.467-8.67-3.467h-6.462V242.872z"/>
				<path fill="#FFFFFF" d="M448.608,234.911l-3.756,22.697h-16.098l17.424-98.749h21.266l17.176,98.749h-16.253l-3.617-22.697
					H448.608z M456.728,181.48l-5.727,38.931h11.452L456.728,181.48z"/>
				<path fill="#FFFFFF" d="M519.792,258.87c-6.815,0-12.609-2.298-17.381-6.896c-4.77-4.596-7.157-10.154-7.157-16.668V181.4
					c0-6.566,2.401-12.148,7.199-16.748c4.798-4.596,10.579-6.895,17.34-6.895c6.817,0,12.597,2.313,17.342,6.936
					c4.744,4.623,7.117,10.194,7.117,16.708v11.27h-16.033v-11.585c0-2.364-0.872-4.386-2.618-6.068
					c-1.746-1.681-3.842-2.522-6.299-2.522c-2.452,0-4.538,0.842-6.255,2.522c-1.718,1.682-2.576,3.704-2.576,6.068v54.063
					c0,2.364,0.858,4.372,2.576,6.03c1.717,1.654,3.803,2.481,6.255,2.481c2.456,0,4.553-0.827,6.299-2.481
					c1.746-1.658,2.618-3.666,2.618-6.03v-13.633h16.033v13.791c0,6.568-2.4,12.135-7.198,16.708
					C532.252,256.583,526.5,258.87,519.792,258.87z"/>
				<path fill="#FFFFFF" d="M572.385,226.281v31.327h-15.46v-98.827h15.46v35.228l18.895-35.228h16.483l-21.163,40.31l24.816,58.517
					h-18.174l-16.231-40.123L572.385,226.281z"/>
				<path fill="#FFFFFF" d="M649.109,173.835h-16.44V158.86h48.257v14.975h-16.359v83.773h-15.457V173.835z"/>
				<path fill="#FFFFFF" d="M716.017,157.601c6.816,0,12.609,2.311,17.384,6.934c4.768,4.625,7.155,10.194,7.155,16.709v53.905
					c0,6.569-2.4,12.15-7.198,16.747c-4.8,4.599-10.581,6.896-17.341,6.896c-6.818,0-12.597-2.31-17.34-6.936
					c-4.746-4.622-7.117-10.19-7.117-16.706v-53.905c0-6.567,2.399-12.15,7.197-16.747
					C703.555,159.899,709.31,157.601,716.017,157.601z M724.442,180.927c0-2.363-0.86-4.373-2.576-6.029
					c-1.72-1.656-3.805-2.482-6.259-2.482c-2.452,0-4.554,0.827-6.298,2.482c-1.746,1.656-2.618,3.666-2.618,6.029v54.064
					c0,2.363,0.872,4.373,2.618,6.027c1.744,1.656,3.846,2.482,6.298,2.482c2.454,0,4.539-0.827,6.259-2.482
					c1.716-1.654,2.576-3.664,2.576-6.027V180.927z"/>
			</g>
			<g opacity="0.7">
				<path fill="#FFFFFF" d="M397.424,371.501c0.134,8.464-2.147,15.702-6.84,21.71c-3.086,4.07-7.444,6.945-13.077,8.625
					c-3.018,0.905-6.539,1.357-10.562,1.357c-7.444,0-13.614-1.777-18.509-5.332c-4.091-2.907-7.329-6.864-9.706-11.871
					c-2.382-5.007-3.772-10.742-4.175-17.205l18.106-1.26c0.805,7.08,2.749,12.21,5.833,15.392c2.279,2.403,4.895,3.541,7.847,3.41
					c4.157-0.128,7.477-2.102,9.958-5.917c1.273-1.875,1.91-4.558,1.91-8.051c0-5.043-2.38-10.056-7.141-15.036
					c-3.756-3.426-9.389-8.568-16.899-15.424c-6.304-5.884-10.764-11.156-13.378-15.812c-2.818-5.238-4.225-10.929-4.225-17.073
					c0-11.058,3.856-19.433,11.568-25.123c4.761-3.428,10.663-5.142,17.705-5.142c6.772,0,12.573,1.454,17.402,4.359
					c3.754,2.264,6.789,5.428,9.103,9.499c2.314,4.07,3.705,8.756,4.175,14.054l-18.207,3.198
					c-0.538-4.976-2.012-8.852-4.427-11.631c-1.744-2-4.259-3.003-7.544-3.003c-3.488,0-6.137,1.487-7.947,4.457
					c-1.475,2.391-2.213,5.365-2.213,8.918c0,5.556,2.48,11.21,7.444,16.96c1.876,2.198,4.693,4.783,8.45,7.754
					c4.426,3.553,7.343,6.043,8.751,7.462c4.694,4.524,8.315,8.983,10.864,13.375c1.207,2.068,2.179,3.974,2.918,5.718
					C396.418,364.201,397.357,368.078,397.424,371.501z"/>
				<path fill="#FFFFFF" d="M443.09,403.29c-8.383,0-15.509-2.825-21.375-8.48c-5.869-5.655-8.801-12.487-8.801-20.499V308.02
					c0-8.076,2.95-14.941,8.85-20.596c5.901-5.651,13.01-8.48,21.326-8.48c8.383,0,15.492,2.846,21.325,8.53
					c5.835,5.686,8.751,12.535,8.751,20.545v13.859h-19.716v-14.248c0-2.907-1.073-5.395-3.218-7.461
					c-2.147-2.067-4.727-3.102-7.746-3.102c-3.017,0-5.583,1.035-7.695,3.102c-2.112,2.066-3.168,4.554-3.168,7.461v66.486
					c0,2.907,1.056,5.378,3.168,7.413c2.112,2.035,4.678,3.054,7.695,3.054c3.019,0,5.599-1.019,7.746-3.054
					c2.146-2.035,3.218-4.506,3.218-7.413v-16.767h19.716v16.959c0,8.077-2.952,14.927-8.852,20.547
					C458.414,400.479,451.34,403.29,443.09,403.29z"/>
				<path fill="#FFFFFF" d="M507.768,350.276v51.463h-19.012V280.302h19.012v51.56h22.935v-51.56h19.012v121.437h-19.012v-51.463
					H507.768z"/>
				<path fill="#FFFFFF" d="M596.588,278.751c8.383,0,15.507,2.844,21.375,8.528c5.869,5.686,8.805,12.536,8.805,20.547v66.292
					c0,8.077-2.952,14.941-8.852,20.594c-5.904,5.654-13.013,8.481-21.328,8.481c-8.382,0-15.491-2.843-21.325-8.53
					c-5.835-5.684-8.75-12.533-8.75-20.545v-66.292c0-8.075,2.95-14.941,8.849-20.595
					C581.264,281.579,588.34,278.751,596.588,278.751z M606.951,307.439c0-2.909-1.057-5.38-3.171-7.415
					c-2.112-2.035-4.677-3.052-7.695-3.052c-3.016,0-5.6,1.017-7.745,3.052c-2.146,2.035-3.219,4.506-3.219,7.415v66.484
					c0,2.909,1.072,5.38,3.219,7.415c2.146,2.035,4.729,3.054,7.745,3.054c3.018,0,5.583-1.019,7.695-3.054
					c2.114-2.035,3.171-4.506,3.171-7.415V307.439z"/>
				<path fill="#FFFFFF" d="M673.237,278.751c8.383,0,15.505,2.844,21.376,8.528c5.868,5.686,8.802,12.536,8.802,20.547v66.292
					c0,8.077-2.952,14.941-8.852,20.594c-5.904,5.654-13.012,8.481-21.326,8.481c-8.385,0-15.492-2.843-21.325-8.53
					c-5.836-5.684-8.752-12.533-8.752-20.545v-66.292c0-8.075,2.952-14.941,8.852-20.595
					C657.913,281.579,664.988,278.751,673.237,278.751z M683.599,307.439c0-2.909-1.055-5.38-3.17-7.415
					c-2.111-2.035-4.677-3.052-7.695-3.052c-3.017,0-5.599,1.017-7.745,3.052c-2.146,2.035-3.218,4.506-3.218,7.415v66.484
					c0,2.909,1.071,5.38,3.218,7.415c2.146,2.035,4.729,3.054,7.745,3.054c3.019,0,5.584-1.019,7.695-3.054
					c2.115-2.035,3.17-4.506,3.17-7.415V307.439z"/>
				<path fill="#FFFFFF" d="M772.017,401.739h-51.806V280.302h19.013v103.216h32.793V401.739z"/>
			</g>
		</g>
	</g>
	<g clip-path="url(#SVGID_2_)">
		<polygon fill="#C49A6C" points="744.502,361.112 675.732,223.315 686.512,217.408 769.44,388.3 759.728,393.75 		"/>
		<path fill="#E6E6E6" d="M1032.299,526.38v50.679l73.434,1.034L1032.299,526.38z M1041.952,544.652l34.131,24.477h-34.131V544.652z
			"/>
		<g>
			<g>
				<g>
					<g>
						<g>
							<path fill="#EAD3A7" d="M863.046,475.57c0,3.366,30.829,319.561,30.829,319.561h11.188l4.831-320.342L863.046,475.57z"/>
						</g>
					</g>
				</g>
				<g>
					<g>
						<g>
							<path fill="#EAD3A7" d="M953.1,475.57c0,3.366-26.781,319.449-26.781,319.449h-9.154l-7.27-320.23L953.1,475.57z"/>
						</g>
					</g>
				</g>
			</g>
			<polygon fill="#EAD3A7" points="894.04,796.205 888.171,822.336 910.594,821.721 905.063,796.205 			"/>
			<polygon fill="#EAD3A7" points="917.31,796.16 911.512,824.037 931.497,824.037 926.318,796.092 			"/>
			<g>
				<g>
					<g>
						<polygon fill="#FE8600" points="894.04,796.205 905.063,796.205 905.063,795.131 893.875,795.131 						"/>
						<path fill="#FE8600" d="M898.349,796.152c0.086,0.201-2.24,25.109-2.24,25.109l-7.938,1.074l-0.409,1.813h23.342l-0.51-2.428
							l-7.517-0.688l-2.812-24.881H898.349z"/>
						<path fill="#00A2AB" d="M903.539,810.271c0,3.531-1.842,6.387-4.111,6.387c-2.271,0-4.119-2.856-4.119-6.387
							c0-3.521,1.849-6.381,4.119-6.381C901.697,803.891,903.539,806.75,903.539,810.271z"/>
						<path fill="#FE8600" d="M902.731,810.271c0,2.838-1.477,5.137-3.304,5.137c-1.83,0-3.31-2.299-3.31-5.137
							c0-2.832,1.48-5.129,3.31-5.129C901.255,805.143,902.731,807.44,902.731,810.271z"/>
					</g>
					<g>
						<polygon fill="#FE8600" points="917.161,796.205 926.318,796.092 926.318,795.019 917.164,795.019 						"/>
						<path fill="#FE8600" d="M920.577,796.049c0.069,0.188-1.922,25.098-1.922,25.098l-6.792,1.082l-0.352,1.809h19.985
							l-0.436-2.422l-6.437-0.695l-2.401-24.871H920.577z"/>
						<path fill="#00A2AB" d="M925.02,810.164c0,3.527-1.581,6.385-3.523,6.385c-1.943,0-3.52-2.857-3.52-6.385
							c0-3.523,1.576-6.379,3.52-6.379C923.439,803.785,925.02,806.641,925.02,810.164z"/>
						<path fill="#FE8600" d="M924.329,810.164c0,2.836-1.267,5.139-2.832,5.139c-1.563,0-2.829-2.303-2.829-5.139
							c0-2.832,1.267-5.129,2.829-5.129C923.063,805.035,924.329,807.332,924.329,810.164z"/>
					</g>
				</g>
				<g>
					<path fill="#FFFFFF" d="M900.858,814.207l-0.117-0.063c0.41-0.758,0.996-4.91,0.442-5.842
						c-0.067-0.109-0.124-0.115-0.177-0.115v-0.566c0.196,0,0.468,0.066,0.665,0.391
						C902.403,809.242,901.281,813.432,900.858,814.207z"/>
				</g>
				<g>
					<path fill="#FFFFFF" d="M922.52,814.207l-0.123-0.063c0.408-0.758,0.996-4.91,0.442-5.842
						c-0.064-0.109-0.125-0.115-0.177-0.115v-0.566c0.199,0,0.466,0.066,0.658,0.391
						C924.058,809.242,922.935,813.432,922.52,814.207z"/>
				</g>
			</g>
		</g>
		<path fill="#F9CF98" d="M916.76,328.008l-6.815-22.429l-23.094,0.7l-5.579,20.43c-7.945,2.23-12.269,8.284-12.269,8.284
			l-1.116,23.994l53.611,7.168l4.992-33.304C926.489,332.852,922.783,330.315,916.76,328.008z"/>
		<path fill="#F9CF98" d="M852.44,269.622c-3.847,0.097-8.016,1.904-6.908,12.79c1.114,10.894,10.786,17.653,11.974,11.576
			C858.702,287.904,856.293,269.499,852.44,269.622z"/>
		<path fill="#F9CF98" d="M937.253,264.302c5.895-0.242,12.259,1.345,10.408,13.319c-1.852,11.976-16.752,20.251-18.5,13.729
			C927.433,284.821,931.353,264.521,937.253,264.302z"/>
		<path fill="#F9CF98" d="M897.539,217.227c-39.86-8.651-44.126,24.269-45.513,33.509c-1.964,19.817,2.011,38.989,5.002,45.872
			c6.752,15.553,27.244,35.018,46.04,29.586c8.821-2.558,16.352-9.037,22.712-15.394c6.55-6.541,11.827-21.043,14.149-28.703
			C942.65,266.058,942.754,227.745,897.539,217.227z"/>
		<path fill-rule="evenodd" clip-rule="evenodd" fill="#F9CF98" d="M754.831,374.355c0,0,2.067-8.632,5.669-12.188
			c2.668-2.636-9.242-19.833-11.334-20.667c-2.107-0.851,6.055,15.416,4.586,16.446c-0.481,0.337,0,0-0.903,0.021
			c-7.976-3.266-15.662-10.521-18.373-12.581c-2.94-2.241-2.862-5.596-4.563-6.708c-0.863-0.564-4.121,0.259-4.121,0.259
			c-2.74,6.345,3.611,13.381,7.878,17.172c-5.648-1.824-10.941-4.777-14.224-9.512c0,0-2.759-4.426-2.866-2.964
			c-0.434,5.898,8.419,16.847,26.063,22.319c0,0,7.985,4.611,7.985,12.188c0,4.288,5.344,23.342,11.722,41.607
			c2.318-2.662,6.386-5.939,13.135-7.792C766.575,397.678,754.831,377.366,754.831,374.355z"/>
		<g>
			<path fill="#75BEDF" d="M991.529,422.996c0.049,0.112,0.077,0.168,0.077,0.168C991.982,423.481,991.753,423.225,991.529,422.996z
				"/>
			<path fill="#D35446" d="M1030.145,491.235c-0.938-2.129-21.636-49.698-38.538-68.071c-0.565-0.613-0.323-0.408-0.077-0.168
				c-1.624-3.293-27.601-56.022-39.544-78.469c-2.586-4.845-6.735-7.824-10.216-10.063c-0.184-0.136-0.382-0.259-0.566-0.372
				c-1.174-0.719-2.366-1.306-3.549-1.74c-3.05-1.099-8.635-1.345-14.206-1.798c-4.976-0.389-9.922-0.957-13.001-2.453l-11.3,8.929
				l-20.581-8.329c-0.72,0.54-1.48,0.984-2.327,1.312c-2.27,0.872-4.381,1.63-6.366,2.314c0,0.011,0,0.011,0,0.011
				c-5.541,1.911-9.425,2.367-13.496,3.727c-2.891,0.978-5.879,2.397-9.614,5.119c-0.259,0.404-0.514,0.833-0.788,1.252
				l-31.892,50.265c-8.793,13.558-19.973,25.583-25.574,30.618c-1.374,1.25-2.412,2.058-3.004,2.381
				c-0.244,0.129-0.409,0.168-0.488,0.114c-0.144-0.093-0.388-0.352-0.723-0.758c-0.688-0.857-1.764-2.388-3.098-4.383
				c-1.629-2.438-3.636-5.572-5.817-9.061c-6.748,1.848-10.815,5.132-13.13,7.785c1.48,4.229,3.014,8.418,4.552,12.376
				c0.58,1.491,1.157,2.938,1.743,4.348c2.963,7.246,5.864,13.328,8.315,16.84c0,0,6.345-5.391,15.543-13.081
				c1.042-0.855,2.132-1.762,3.238-2.694c2.046-1.689,4.199-3.48,6.416-5.315c9.896-8.193,21.289-17.513,31.391-25.504
				c4.297-3.389,8.364-6.548,11.993-9.281c-0.296-1.621-0.672-3.15-1.116-4.597c0.02,0.05,0.035,0.102,0.052,0.149
				c0.466,1.509,0.859,3.103,1.166,4.793l15.296-9.775h0.011v-0.011c0-0.026-0.004-0.102-0.008-0.19
				c0.101,0.167,0.284,0.456,0.534,0.861c3.022,4.875,8.464,14.515,10.8,24.09c0.036,0.138,0.061,0.267,0.099,0.406
				c0.073,0.309,0.146,0.611,0.212,0.911c0.704,3.325,1.024,6.62,0.695,9.687c-1.689,15.963-21.533,48.633-22.414,86.458
				c-1.688,73.54-41.555,89.877-41.555,89.877s3.915,7.923,18.11,15.114c0,0,0.024,0.011,0.089,0.046
				c0.063,0.041,0.146,0.079,0.257,0.139c0.071,0.033,0.146,0.07,0.242,0.116c7.966,3.953,19.082,7.657,34.397,9.643
				c9.732,1.275,21.176,1.863,34.585,1.396c9.026-0.319,18.949-1.114,29.848-2.513c5.086-0.633,10.376-1.403,15.885-2.321
				c6.235-1.047,12.444-2.429,18.436-4.011c7.705-2.034,15.03-4.367,21.592-6.695h0.013c16.784-5.941,28.541-11.736,28.541-11.736
				s-13.683-1.422-26.947-41.006c-12.932-38.604-22.034-85.925-35.334-106.389c-15.311-23.578-15.376-40.333-12.252-52.102v-0.015
				c1.25-4.667,3.003-8.563,4.51-11.767c1.067-2.277,1.312-4.486,1.301-6.336c-0.199-0.221-0.393-0.439-0.602-0.65
				c-9.994-10.933-9.627-10.607,0.602,0.65c0.391,0.43,0.794,0.872,1.183,1.316l32.635,46.256c0,0,3.664,10.747,5.224,14.184
				c8.861,19.45,25.334,48.49,29.058,53.685c0.624,0.861,1.036,1.36,1.233,1.438c0.863,0.339,1.787,0.425,2.608,0.401
				c0,0,0.013,0,0.038-0.015c0.613-0.145,8.136-2.021,13.818-5.927c0.193-0.136,0.392-0.272,0.583-0.417l1.299-0.919
				C1030.161,491.311,1030.152,491.286,1030.145,491.235z"/>
		</g>
		<path fill-rule="evenodd" clip-rule="evenodd" fill="none" stroke="#211915" stroke-miterlimit="10" d="M1014.526,498.928
			c0,0,0.013,0,0.038-0.011"/>
		<path fill-rule="evenodd" clip-rule="evenodd" fill="#F9CF98" d="M1066.958,554.951c0,0-3.67-8.254-8.246-9.171
			c-4.591-0.918,5.504,14.67,2.75,13.754c-2.75-0.922-16.059-11.013-18.343-20.641c-2.297-9.639-26.153-40.366-26.153-40.366
			s-1.054,0.339-2.401,0.391c0.613-0.145,8.131-2.023,13.818-5.928c0,0,19.779,36.265,21.605,39.938
			c1.831,3.679,16.524,7.788,21.563,7.788C1076.604,540.714,1066.958,554.951,1066.958,554.951z"/>
		<path fill-rule="evenodd" clip-rule="evenodd" fill="#D6380F" d="M941.222,369.661c-0.11-0.309-0.208-0.598-0.285-0.881
			C941.001,368.951,941.096,369.26,941.222,369.661z"/>
		<path fill-rule="evenodd" clip-rule="evenodd" fill="#FFFFFF" d="M900.037,337.691c-0.207,0.816-0.588,1.557-1.093,2.213
			c-5.44,7.01-26.555,5.065-29.345-1.569c-0.979-2.323-0.602-4.19,0.377-5.652c0,0-0.009-0.013,0-0.013
			c2.062-3.113,6.757-4.402,6.757-4.402l1.935,0.784l20.579,8.322L900.037,337.691z"/>
		<path fill-rule="evenodd" clip-rule="evenodd" fill="#FFFFFF" d="M923.551,330.897c0.011,0.225,0.011,0.469-0.011,0.713
			c-0.484,7.224-18.441,14.448-24.596,8.294c-0.412-0.423-0.783-0.896-1.081-1.442l1.384-1.088l11.304-8.925l1.205-0.95
			C911.756,327.499,923.289,324.114,923.551,330.897z"/>
		<g>
			<path fill="#B45A22" d="M878.166,265.901c2.027-3.548-5.264-6.217-9.568-6.217s-10.043,8.132-9.087,10.044
				c0.958,1.913,4.279-5.355,9.54-5.355C874.314,264.373,876.251,269.25,878.166,265.901z"/>
			<g>
				<path fill="#FFFFFF" d="M868.905,270.343c-12.571,3.609-11.643,21.643,2.089,21.32
					C884.728,291.34,883.534,266.143,868.905,270.343z"/>
				<ellipse fill="#6E3302" cx="870.646" cy="280.691" rx="5.346" ry="6.753"/>
				<circle fill="#FFFFFF" cx="867.926" cy="277.315" r="3.188"/>
				<circle fill="#FFFFFF" cx="872.521" cy="283.505" r="1.219"/>
			</g>
			<path fill="#B45A22" d="M905.565,264.776c-2.029-3.548,5.26-6.218,9.565-6.218c4.305,0,10.043,8.131,9.088,10.045
				c-0.957,1.912-4.28-5.356-9.542-5.356C909.417,263.247,907.477,268.125,905.565,264.776z"/>
			<g>
				<path fill="#FFFFFF" d="M914.823,269.217c12.572,3.609,11.643,21.645-2.089,21.321
					C899.002,290.214,900.195,265.018,914.823,269.217z"/>
				<ellipse fill="#6E3302" cx="913.645" cy="279.565" rx="5.346" ry="6.753"/>
				<circle fill="#FFFFFF" cx="910.926" cy="276.19" r="3.188"/>
				<circle fill="#FFFFFF" cx="915.521" cy="282.379" r="1.219"/>
			</g>
			<path fill="#F49A5E" d="M887.059,295.228c0.655-0.875,2.626,1.501,5.627,1.688c3,0.188,4.313-3.001,5.626-2.25
				c1.314,0.75-1.313,4.876-5.814,5.252C887.996,300.292,886.494,295.978,887.059,295.228z"/>
			<path fill="#F49A5E" d="M879.93,307.701c0.443-1.179,3.377,2.531,13.225,2.531c9.847,0,13.224-6.471,14.63-5.627
				c1.406,0.844-5.346,7.878-14.63,7.878C883.869,312.484,879.086,309.951,879.93,307.701z"/>
			<path fill="#F6AD7A" d="M900.406,313.938c-1.713,0.382-3.165,1.023-4.964,1.127c-1.827,0.103-3.68-0.398-5.476-0.206
				c-0.498,0.054-0.572,0.66-0.116,0.846c2.857,1.166,8.667,1.357,10.862-1.237C900.918,314.226,900.727,313.866,900.406,313.938z"
				/>
		</g>
		<path fill="#F7931E" d="M880.165,226.086c0,0,1.231,24.021-30.518,29.135c-31.75,5.114,2.057-0.371,2.057-0.371
			s-3.203,29.873,8.351,47.073c0,0-2.566,5.107-12.772-2.543c0,0-5.222-3.223-2.246-7.922c0,0-0.174-0.976-1.509-1.249
			c-1.338-0.273-12.049-4.447-9.729-16.981c0,0,0.03-5.616,4.495-9.326c0,0,1.162-0.286-0.183-1.423
			c-1.345-1.138-9.149-11.107-6.273-17.651c2.881-6.544,5.764-9.938,10.047-11.138c0,0,0.595,0.02,0.157-2.583
			c-0.439-2.602-2.426-15.646,9.657-11.393c0,0,0.874,0.533,0.795-1.105c-0.076-1.638-3.554-13.503,17.505-18.42
			c21.06-4.917,21.19,4.33,21.19,4.33s20.031-17.672,26.927,2.096c0,0,19.341-5.687,16.527,9.882c0,0,15.672-6.923,24.756,10.218
			c0,0,6.033,12.236-4.306,17.743c0,0-1.622,0.143,1.342,1.396c2.964,1.252,11.066,8.736,6.935,14.619
			c-4.132,5.882-6.29,5.528-7.693,7.383c-1.402,1.854,0.883,3.396,1.469,4.763c0.586,1.367,3.238,27.187-14.662,28.973
			c-17.899,1.786-19.797-4.252-19.797-4.252s20.395-15.97,16.085-43.638C938.771,253.703,893.612,253.374,880.165,226.086z"/>
		<path fill="#F7931E" d="M884.353,199.036c0,0-7.115-12.265,3.346-13.342c0,0-4.946-17.648,12.56-18.455
			c17.506-0.806,17.959,8.15,17.959,8.15s13.766-8.764,18.589,3.073l1.738,5.452c0,0,10.421,1.996,11.26,8.026
			c0.836,6.03,8.951,16.501-3.732,22.063l-8.477,5.583l-30.911-5.317l-13.07-6.07l-10.229-4.262L884.353,199.036z"/>
	</g>
	<g clip-path="url(#SVGID_2_)">
		<g>
			<g>
				<g>
					<path fill="#754C24" d="M461.631,523.672c-10.914,0-19.87-2.213-20.427-4.868l3.848,36.152c0,2.63,7.381,4.873,16.586,4.873
						c9.204,0,16.821-2.243,16.821-4.873l3.464-36.415C481.923,521.31,472.903,523.672,461.631,523.672z"/>
				</g>
				<g>
					<g>
						<defs>
							<path id="SVGID_3_" d="M461.631,523.672c11.272,0,20.292-2.362,20.292-5.131c0-2.768-9.02-4.894-20.292-4.894
								c-11.271,0-20.455,2.126-20.455,4.894l0.028,0.263C441.761,521.458,450.717,523.672,461.631,523.672z"/>
						</defs>
						<clipPath id="SVGID_4_">
							<use xlink:href="#SVGID_3_"  overflow="visible"/>
						</clipPath>
						<path clip-path="url(#SVGID_4_)" fill="#828585" d="M441.175,513.649v10.023V513.649z"/>
						<rect x="441.175" y="513.649" clip-path="url(#SVGID_4_)" fill="#828585" width="0.636" height="10.023"/>
						<rect x="441.811" y="513.649" clip-path="url(#SVGID_4_)" fill="#828585" width="0.639" height="10.023"/>
						<rect x="442.45" y="513.649" clip-path="url(#SVGID_4_)" fill="#828585" width="0.636" height="10.023"/>
						<rect x="443.085" y="513.649" clip-path="url(#SVGID_4_)" fill="#838686" width="0.636" height="10.023"/>
						<rect x="443.721" y="513.649" clip-path="url(#SVGID_4_)" fill="#838686" width="0.64" height="10.023"/>
						<rect x="444.361" y="513.649" clip-path="url(#SVGID_4_)" fill="#838686" width="0.635" height="10.023"/>
						<rect x="444.996" y="513.649" clip-path="url(#SVGID_4_)" fill="#848787" width="0.637" height="10.023"/>
						<rect x="445.632" y="513.649" clip-path="url(#SVGID_4_)" fill="#848787" width="0.639" height="10.023"/>
						<rect x="446.271" y="513.649" clip-path="url(#SVGID_4_)" fill="#858888" width="0.636" height="10.023"/>
						<rect x="446.907" y="513.649" clip-path="url(#SVGID_4_)" fill="#858888" width="0.636" height="10.023"/>
						<rect x="447.543" y="513.649" clip-path="url(#SVGID_4_)" fill="#868989" width="0.636" height="10.023"/>
						<rect x="448.178" y="513.649" clip-path="url(#SVGID_4_)" fill="#878989" width="0.636" height="10.023"/>
						<rect x="448.814" y="513.649" clip-path="url(#SVGID_4_)" fill="#878A8A" width="0.639" height="10.023"/>
						<rect x="449.453" y="513.649" clip-path="url(#SVGID_4_)" fill="#888A8A" width="0.636" height="10.023"/>
						<rect x="450.088" y="513.649" clip-path="url(#SVGID_4_)" fill="#898B8B" width="0.636" height="10.023"/>
						<rect x="450.724" y="513.649" clip-path="url(#SVGID_4_)" fill="#898C8C" width="0.64" height="10.023"/>
						<rect x="451.364" y="513.649" clip-path="url(#SVGID_4_)" fill="#8A8C8C" width="0.636" height="10.023"/>
						<rect x="451.999" y="513.649" clip-path="url(#SVGID_4_)" fill="#8B8D8D" width="0.636" height="10.023"/>
						<rect x="452.635" y="513.649" clip-path="url(#SVGID_4_)" fill="#8C8E8E" width="0.639" height="10.023"/>
						<rect x="453.274" y="513.649" clip-path="url(#SVGID_4_)" fill="#8C8F8E" width="0.637" height="10.023"/>
						<rect x="453.911" y="513.649" clip-path="url(#SVGID_4_)" fill="#8D8F8F" width="0.635" height="10.023"/>
						<rect x="454.545" y="513.649" clip-path="url(#SVGID_4_)" fill="#8E9090" width="0.64" height="10.023"/>
						<rect x="455.185" y="513.649" clip-path="url(#SVGID_4_)" fill="#8F9191" width="0.636" height="10.023"/>
						<rect x="455.821" y="513.649" clip-path="url(#SVGID_4_)" fill="#909292" width="0.636" height="10.023"/>
						<rect x="456.456" y="513.649" clip-path="url(#SVGID_4_)" fill="#919392" width="0.635" height="10.023"/>
						<rect x="457.091" y="513.649" clip-path="url(#SVGID_4_)" fill="#929493" width="0.637" height="10.023"/>
						<rect x="457.728" y="513.649" clip-path="url(#SVGID_4_)" fill="#939494" width="0.639" height="10.023"/>
						<rect x="458.367" y="513.649" clip-path="url(#SVGID_4_)" fill="#949595" width="0.636" height="10.023"/>
						<rect x="459.002" y="513.649" clip-path="url(#SVGID_4_)" fill="#959696" width="0.636" height="10.023"/>
						<rect x="459.638" y="513.649" clip-path="url(#SVGID_4_)" fill="#969797" width="0.639" height="10.023"/>
						<rect x="460.277" y="513.649" clip-path="url(#SVGID_4_)" fill="#979898" width="0.637" height="10.023"/>
						<rect x="460.914" y="513.649" clip-path="url(#SVGID_4_)" fill="#989999" width="0.635" height="10.023"/>
						<rect x="461.548" y="513.649" clip-path="url(#SVGID_4_)" fill="#999A9A" width="0.64" height="10.023"/>
						<rect x="462.188" y="513.649" clip-path="url(#SVGID_4_)" fill="#9A9B9B" width="0.636" height="10.023"/>
						<rect x="462.824" y="513.649" clip-path="url(#SVGID_4_)" fill="#9B9C9C" width="0.636" height="10.023"/>
						<rect x="463.46" y="513.649" clip-path="url(#SVGID_4_)" fill="#9C9D9D" width="0.64" height="10.023"/>
						<rect x="464.099" y="513.649" clip-path="url(#SVGID_4_)" fill="#9D9E9E" width="0.635" height="10.023"/>
						<rect x="464.734" y="513.649" clip-path="url(#SVGID_4_)" fill="#9F9F9F" width="0.636" height="10.023"/>
						<rect x="465.37" y="513.649" clip-path="url(#SVGID_4_)" fill="#A0A0A0" width="0.636" height="10.023"/>
						<rect x="466.005" y="513.649" clip-path="url(#SVGID_4_)" fill="#A1A2A1" width="0.636" height="10.023"/>
						<rect x="466.641" y="513.649" clip-path="url(#SVGID_4_)" fill="#A2A3A2" width="0.64" height="10.023"/>
						<rect x="467.281" y="513.649" clip-path="url(#SVGID_4_)" fill="#A3A4A3" width="0.636" height="10.023"/>
						<rect x="467.917" y="513.649" clip-path="url(#SVGID_4_)" fill="#A5A5A4" width="0.636" height="10.023"/>
						<rect x="468.552" y="513.649" clip-path="url(#SVGID_4_)" fill="#A6A6A6" width="0.639" height="10.023"/>
						<rect x="469.191" y="513.649" clip-path="url(#SVGID_4_)" fill="#A7A7A7" width="0.636" height="10.023"/>
						<rect x="469.827" y="513.649" clip-path="url(#SVGID_4_)" fill="#A8A8A8" width="0.636" height="10.023"/>
						<rect x="470.462" y="513.649" clip-path="url(#SVGID_4_)" fill="#AAAAA9" width="0.64" height="10.023"/>
						<rect x="471.102" y="513.649" clip-path="url(#SVGID_4_)" fill="#ABABAA" width="0.636" height="10.023"/>
						<rect x="471.738" y="513.649" clip-path="url(#SVGID_4_)" fill="#ACACAB" width="0.635" height="10.023"/>
						<rect x="472.373" y="513.649" clip-path="url(#SVGID_4_)" fill="#AEADAD" width="0.637" height="10.023"/>
						<rect x="473.009" y="513.649" clip-path="url(#SVGID_4_)" fill="#AFAFAE" width="0.635" height="10.023"/>
						<rect x="473.644" y="513.649" clip-path="url(#SVGID_4_)" fill="#B0B0AF" width="0.64" height="10.023"/>
						<rect x="474.284" y="513.649" clip-path="url(#SVGID_4_)" fill="#B2B1B0" width="0.636" height="10.023"/>
						<rect x="474.919" y="513.649" clip-path="url(#SVGID_4_)" fill="#B3B2B2" width="0.636" height="10.023"/>
						<rect x="475.555" y="513.649" clip-path="url(#SVGID_4_)" fill="#B5B4B3" width="0.64" height="10.023"/>
						<rect x="476.195" y="513.649" clip-path="url(#SVGID_4_)" fill="#B6B5B4" width="0.635" height="10.023"/>
						<rect x="476.83" y="513.649" clip-path="url(#SVGID_4_)" fill="#B8B6B6" width="0.636" height="10.023"/>
						<rect x="477.465" y="513.649" clip-path="url(#SVGID_4_)" fill="#B9B8B7" width="0.64" height="10.023"/>
						<rect x="478.105" y="513.649" clip-path="url(#SVGID_4_)" fill="#BAB9B8" width="0.636" height="10.023"/>
						<rect x="478.741" y="513.649" clip-path="url(#SVGID_4_)" fill="#BCBABA" width="0.636" height="10.023"/>
						<rect x="479.376" y="513.649" clip-path="url(#SVGID_4_)" fill="#BDBCBB" width="0.64" height="10.023"/>
						<rect x="480.016" y="513.649" clip-path="url(#SVGID_4_)" fill="#BFBDBC" width="0.635" height="10.023"/>
						<rect x="480.651" y="513.649" clip-path="url(#SVGID_4_)" fill="#C0BFBE" width="0.637" height="10.023"/>
						<rect x="481.288" y="513.649" clip-path="url(#SVGID_4_)" fill="#C2C0BF" width="0.635" height="10.023"/>
						<path clip-path="url(#SVGID_4_)" fill="#C2C0BF" d="M481.922,523.672v-10.023V523.672z"/>
					</g>
				</g>
				<g>
					<g>
						<defs>
							<path id="SVGID_5_" d="M461.62,522.215c9.579,0,17.248-1.817,17.248-3.948c0-2.129-7.669-3.766-17.248-3.766
								c-9.581,0-17.387,1.637-17.387,3.766l0.023,0.2C444.73,520.511,452.342,522.215,461.62,522.215z"/>
						</defs>
						<clipPath id="SVGID_6_">
							<use xlink:href="#SVGID_5_"  overflow="visible"/>
						</clipPath>
						<rect x="444.232" y="522.148" clip-path="url(#SVGID_6_)" fill="#774F20" width="34.638" height="0.069"/>
						<rect x="444.232" y="522.078" clip-path="url(#SVGID_6_)" fill="#774F20" width="34.638" height="0.07"/>
						<rect x="444.232" y="522.008" clip-path="url(#SVGID_6_)" fill="#775020" width="34.638" height="0.07"/>
						<rect x="444.232" y="521.938" clip-path="url(#SVGID_6_)" fill="#775020" width="34.638" height="0.07"/>
						<rect x="444.232" y="521.868" clip-path="url(#SVGID_6_)" fill="#775021" width="34.638" height="0.07"/>
						<rect x="444.232" y="521.798" clip-path="url(#SVGID_6_)" fill="#775021" width="34.638" height="0.07"/>
						<rect x="444.232" y="521.725" clip-path="url(#SVGID_6_)" fill="#785022" width="34.638" height="0.074"/>
						<rect x="444.232" y="521.655" clip-path="url(#SVGID_6_)" fill="#785122" width="34.638" height="0.07"/>
						<rect x="444.232" y="521.585" clip-path="url(#SVGID_6_)" fill="#785123" width="34.638" height="0.07"/>
						<rect x="444.232" y="521.515" clip-path="url(#SVGID_6_)" fill="#785123" width="34.638" height="0.07"/>
						<rect x="444.232" y="521.446" clip-path="url(#SVGID_6_)" fill="#785124" width="34.638" height="0.069"/>
						<rect x="444.232" y="521.375" clip-path="url(#SVGID_6_)" fill="#785224" width="34.638" height="0.07"/>
						<rect x="444.232" y="521.306" clip-path="url(#SVGID_6_)" fill="#785225" width="34.638" height="0.069"/>
						<rect x="444.232" y="521.236" clip-path="url(#SVGID_6_)" fill="#785225" width="34.638" height="0.07"/>
						<rect x="444.232" y="521.166" clip-path="url(#SVGID_6_)" fill="#785326" width="34.638" height="0.07"/>
						<rect x="444.232" y="521.097" clip-path="url(#SVGID_6_)" fill="#795327" width="34.638" height="0.069"/>
						<rect x="444.232" y="521.027" clip-path="url(#SVGID_6_)" fill="#795327" width="34.638" height="0.07"/>
						<rect x="444.232" y="520.956" clip-path="url(#SVGID_6_)" fill="#795428" width="34.638" height="0.07"/>
						<rect x="444.232" y="520.887" clip-path="url(#SVGID_6_)" fill="#795429" width="34.638" height="0.069"/>
						<rect x="444.232" y="520.817" clip-path="url(#SVGID_6_)" fill="#795429" width="34.638" height="0.07"/>
						<rect x="444.232" y="520.748" clip-path="url(#SVGID_6_)" fill="#79552A" width="34.638" height="0.07"/>
						<rect x="444.232" y="520.674" clip-path="url(#SVGID_6_)" fill="#79552B" width="34.638" height="0.074"/>
						<rect x="444.232" y="520.608" clip-path="url(#SVGID_6_)" fill="#79562B" width="34.638" height="0.066"/>
						<rect x="444.232" y="520.534" clip-path="url(#SVGID_6_)" fill="#7A562C" width="34.638" height="0.074"/>
						<rect x="444.232" y="520.464" clip-path="url(#SVGID_6_)" fill="#7A562D" width="34.638" height="0.07"/>
						<rect x="444.232" y="520.395" clip-path="url(#SVGID_6_)" fill="#7A572E" width="34.638" height="0.069"/>
						<rect x="444.232" y="520.325" clip-path="url(#SVGID_6_)" fill="#7A572F" width="34.638" height="0.07"/>
						<rect x="444.232" y="520.255" clip-path="url(#SVGID_6_)" fill="#7A582F" width="34.638" height="0.069"/>
						<rect x="444.232" y="520.185" clip-path="url(#SVGID_6_)" fill="#7A5830" width="34.638" height="0.07"/>
						<rect x="444.232" y="520.115" clip-path="url(#SVGID_6_)" fill="#7B5931" width="34.638" height="0.07"/>
						<rect x="444.232" y="520.046" clip-path="url(#SVGID_6_)" fill="#7B5932" width="34.638" height="0.069"/>
						<rect x="444.232" y="519.976" clip-path="url(#SVGID_6_)" fill="#7B5A33" width="34.638" height="0.07"/>
						<rect x="444.232" y="519.906" clip-path="url(#SVGID_6_)" fill="#7B5A34" width="34.638" height="0.07"/>
						<rect x="444.232" y="519.836" clip-path="url(#SVGID_6_)" fill="#7B5A35" width="34.638" height="0.069"/>
						<rect x="444.232" y="519.766" clip-path="url(#SVGID_6_)" fill="#7C5B36" width="34.638" height="0.07"/>
						<rect x="444.232" y="519.697" clip-path="url(#SVGID_6_)" fill="#7C5B36" width="34.638" height="0.069"/>
						<rect x="444.232" y="519.627" clip-path="url(#SVGID_6_)" fill="#7C5C37" width="34.638" height="0.07"/>
						<rect x="444.232" y="519.557" clip-path="url(#SVGID_6_)" fill="#7C5C38" width="34.638" height="0.07"/>
						<rect x="444.232" y="519.483" clip-path="url(#SVGID_6_)" fill="#7C5D39" width="34.638" height="0.073"/>
						<rect x="444.232" y="519.414" clip-path="url(#SVGID_6_)" fill="#7C5D3A" width="34.638" height="0.07"/>
						<rect x="444.232" y="519.344" clip-path="url(#SVGID_6_)" fill="#7D5E3B" width="34.638" height="0.07"/>
						<rect x="444.232" y="519.274" clip-path="url(#SVGID_6_)" fill="#7D5F3C" width="34.638" height="0.07"/>
						<rect x="444.232" y="519.204" clip-path="url(#SVGID_6_)" fill="#7D5F3D" width="34.638" height="0.07"/>
						<rect x="444.232" y="519.134" clip-path="url(#SVGID_6_)" fill="#7D603E" width="34.638" height="0.07"/>
						<rect x="444.232" y="519.065" clip-path="url(#SVGID_6_)" fill="#7D603F" width="34.638" height="0.07"/>
						<rect x="444.232" y="518.995" clip-path="url(#SVGID_6_)" fill="#7E6140" width="34.638" height="0.07"/>
						<rect x="444.232" y="518.925" clip-path="url(#SVGID_6_)" fill="#7E6141" width="34.638" height="0.07"/>
						<rect x="444.232" y="518.855" clip-path="url(#SVGID_6_)" fill="#7E6243" width="34.638" height="0.07"/>
						<rect x="444.232" y="518.786" clip-path="url(#SVGID_6_)" fill="#7E6244" width="34.638" height="0.069"/>
						<rect x="444.232" y="518.715" clip-path="url(#SVGID_6_)" fill="#7F6345" width="34.638" height="0.07"/>
						<rect x="444.232" y="518.646" clip-path="url(#SVGID_6_)" fill="#7F6446" width="34.638" height="0.069"/>
						<rect x="444.232" y="518.576" clip-path="url(#SVGID_6_)" fill="#7F6447" width="34.638" height="0.07"/>
						<rect x="444.232" y="518.506" clip-path="url(#SVGID_6_)" fill="#7F6548" width="34.638" height="0.07"/>
						<rect x="444.232" y="518.433" clip-path="url(#SVGID_6_)" fill="#7F6549" width="34.638" height="0.073"/>
						<rect x="444.232" y="518.367" clip-path="url(#SVGID_6_)" fill="#80664A" width="34.638" height="0.066"/>
						<rect x="444.232" y="518.293" clip-path="url(#SVGID_6_)" fill="#80674C" width="34.638" height="0.074"/>
						<rect x="444.232" y="518.223" clip-path="url(#SVGID_6_)" fill="#80674D" width="34.638" height="0.07"/>
						<rect x="444.232" y="518.153" clip-path="url(#SVGID_6_)" fill="#80684E" width="34.638" height="0.07"/>
						<rect x="444.232" y="518.083" clip-path="url(#SVGID_6_)" fill="#81684F" width="34.638" height="0.07"/>
						<rect x="444.232" y="518.014" clip-path="url(#SVGID_6_)" fill="#816950" width="34.638" height="0.07"/>
						<rect x="444.232" y="517.944" clip-path="url(#SVGID_6_)" fill="#816A51" width="34.638" height="0.07"/>
						<rect x="444.232" y="517.874" clip-path="url(#SVGID_6_)" fill="#816A53" width="34.638" height="0.07"/>
						<rect x="444.232" y="517.804" clip-path="url(#SVGID_6_)" fill="#826B54" width="34.638" height="0.07"/>
						<rect x="444.232" y="517.734" clip-path="url(#SVGID_6_)" fill="#826C55" width="34.638" height="0.07"/>
						<rect x="444.232" y="517.665" clip-path="url(#SVGID_6_)" fill="#826C56" width="34.638" height="0.07"/>
						<rect x="444.232" y="517.595" clip-path="url(#SVGID_6_)" fill="#826D58" width="34.638" height="0.069"/>
						<rect x="444.232" y="517.525" clip-path="url(#SVGID_6_)" fill="#836E59" width="34.638" height="0.07"/>
						<rect x="444.232" y="517.455" clip-path="url(#SVGID_6_)" fill="#836E5A" width="34.638" height="0.07"/>
						<rect x="444.232" y="517.386" clip-path="url(#SVGID_6_)" fill="#836F5B" width="34.638" height="0.069"/>
						<rect x="444.232" y="517.315" clip-path="url(#SVGID_6_)" fill="#83705D" width="34.638" height="0.07"/>
						<rect x="444.232" y="517.242" clip-path="url(#SVGID_6_)" fill="#84705E" width="34.638" height="0.073"/>
						<rect x="444.232" y="517.172" clip-path="url(#SVGID_6_)" fill="#84715F" width="34.638" height="0.07"/>
						<rect x="444.232" y="517.102" clip-path="url(#SVGID_6_)" fill="#847261" width="34.638" height="0.07"/>
						<rect x="444.232" y="517.033" clip-path="url(#SVGID_6_)" fill="#847362" width="34.638" height="0.07"/>
						<rect x="444.232" y="516.963" clip-path="url(#SVGID_6_)" fill="#857363" width="34.638" height="0.07"/>
						<rect x="444.232" y="516.893" clip-path="url(#SVGID_6_)" fill="#857465" width="34.638" height="0.07"/>
						<rect x="444.232" y="516.823" clip-path="url(#SVGID_6_)" fill="#857566" width="34.638" height="0.07"/>
						<rect x="444.232" y="516.753" clip-path="url(#SVGID_6_)" fill="#857567" width="34.638" height="0.07"/>
						<rect x="444.232" y="516.684" clip-path="url(#SVGID_6_)" fill="#867669" width="34.638" height="0.069"/>
						<rect x="444.232" y="516.614" clip-path="url(#SVGID_6_)" fill="#86776A" width="34.638" height="0.07"/>
						<rect x="444.232" y="516.544" clip-path="url(#SVGID_6_)" fill="#86786C" width="34.638" height="0.07"/>
						<rect x="444.232" y="516.474" clip-path="url(#SVGID_6_)" fill="#87786D" width="34.638" height="0.07"/>
						<rect x="444.232" y="516.404" clip-path="url(#SVGID_6_)" fill="#87796E" width="34.638" height="0.07"/>
						<rect x="444.232" y="516.334" clip-path="url(#SVGID_6_)" fill="#877A70" width="34.638" height="0.07"/>
						<rect x="444.232" y="516.265" clip-path="url(#SVGID_6_)" fill="#877B71" width="34.638" height="0.07"/>
						<rect x="444.232" y="516.191" clip-path="url(#SVGID_6_)" fill="#887B73" width="34.638" height="0.073"/>
						<rect x="444.232" y="516.125" clip-path="url(#SVGID_6_)" fill="#887C74" width="34.638" height="0.066"/>
						<rect x="444.232" y="516.052" clip-path="url(#SVGID_6_)" fill="#887D76" width="34.638" height="0.074"/>
						<rect x="444.232" y="515.982" clip-path="url(#SVGID_6_)" fill="#897E77" width="34.638" height="0.07"/>
						<rect x="444.232" y="515.912" clip-path="url(#SVGID_6_)" fill="#897E78" width="34.638" height="0.07"/>
						<rect x="444.232" y="515.842" clip-path="url(#SVGID_6_)" fill="#897F7A" width="34.638" height="0.07"/>
						<rect x="444.232" y="515.773" clip-path="url(#SVGID_6_)" fill="#89807B" width="34.638" height="0.07"/>
						<rect x="444.232" y="515.703" clip-path="url(#SVGID_6_)" fill="#8A817D" width="34.638" height="0.07"/>
						<rect x="444.232" y="515.633" clip-path="url(#SVGID_6_)" fill="#8A827E" width="34.638" height="0.07"/>
						<rect x="444.232" y="515.563" clip-path="url(#SVGID_6_)" fill="#8A8280" width="34.638" height="0.07"/>
						<rect x="444.232" y="515.493" clip-path="url(#SVGID_6_)" fill="#8B8381" width="34.638" height="0.07"/>
						<rect x="444.232" y="515.423" clip-path="url(#SVGID_6_)" fill="#8B8483" width="34.638" height="0.07"/>
						<rect x="444.232" y="514.502" clip-path="url(#SVGID_6_)" fill="#8B8483" width="34.638" height="0.922"/>
					</g>
				</g>
				<g opacity="0.3">
					<path fill="#A67C52" d="M471.517,523.012l0.567,35.736c1.271-0.298,2.393-0.646,3.329-1.033l1.752-35.895
						C475.587,522.298,473.676,522.704,471.517,523.012z"/>
				</g>
				<g opacity="0.6">
					<path fill="#A67C52" d="M462.567,523.667l2.559,36.053c1.173-0.075,2.301-0.185,3.372-0.329l-0.226-36.005
						C466.473,523.545,464.56,523.643,462.567,523.667z"/>
				</g>
			</g>
			<g>
				<path fill="#68BA7A" d="M474.34,507.891c0,7.688-6.232,13.92-13.919,13.92l0,0c-7.689,0-13.921-6.231-13.921-13.92V485.25
					c0-7.688,6.231-13.921,13.921-13.921l0,0c7.686,0,13.919,6.233,13.919,13.921V507.891z"/>
			</g>
			<g>
				<g>
					<path fill="#39B54A" d="M456.824,521.067c0,0-3.849,2.276-7.354-0.464c-2.978-2.328-2.083-8.346-1.743-10.448
						c0.34-2.1,4.683-12.373,2.036-14.594c-2.646-2.219-5.195-1.012-5.09,0.869c0.104,1.881,1.652,2.109,2.317,1.668
						c0.664-0.441,1.103,0.445,0.22,0.664c-0.885,0.218-2.103,0.768-3.422-2.113c-1.319-2.879,2.996-3.421,4.544-2.973
						c1.547,0.448,4.198,1.121,3.963,6.208c-0.238,5.087-1.954,10.198,0.179,13.718
						C455.225,518.142,458.378,519.081,456.824,521.067z"/>
				</g>
				<g>
					<path fill="#D9E021" d="M474.331,516.981c0,0,3.772-5.625,10.162-3.64c0,0,2.189,1.229,2.562,2.125
						c0.378,0.895-1.273-0.702-2.724-1.038c-1.451-0.336-5.048-0.597-6.32,2.167c-0.988,2.144-2.929,4.514-4.339,4.286
						C472.26,520.652,472.813,519.032,474.331,516.981z"/>
				</g>
				<g>
					<path fill="#D9E021" d="M445.55,512.171c0,0-3.109-3.114-5.863-3.623c-2.758-0.507-3.978,1.359-3.696,2.625
						c0.28,1.264,1.775,2.576,2.376,2.21c0.598-0.368,1.388-0.948,1.152-1.793c0,0-0.485-0.555-0.565,0.013
						c-0.079,0.567-0.684,1.569-1.407,0.809c-0.722-0.763-1.176-1.67-0.021-2.19c1.148-0.518,3.09-0.349,4.214,1.534
						c1.131,1.885,2.211,3.982,2.711,5.951c0.499,1.967,3.298,4.167,4.564,2.727C450.277,518.995,448.679,515.423,445.55,512.171z"
						/>
				</g>
				<g>
					<g>
						<path fill="#39B54A" d="M468.162,518.018c0.214-0.402,4.458-8.892,7.561-13.038c3.35-4.479,7.348-6.628,9.052-6.882
							c1.704-0.253,3.074,0.436,3.558,1.995c0.483,1.564-0.839,2.949-1.472,3.118c-0.635,0.169-2.365-0.148-2.366-1.029
							c0.004-0.728,0.516-1.334,1.068-1.439c0.234-0.044,0.353,0.096,0.12,0.215c-0.245,0.13-1.094,1.107-0.136,1.468
							c1.198,0.45,1.745-0.299,1.944-1.435c0.198-1.133-0.635-1.703-1.945-1.822c-1.034-0.09-4.508,3.037-5.486,5.19
							c-0.984,2.157-3.854,10.832-5.397,13.607c-1.541,2.78-3.989,3.874-5.646,3.847
							C467.361,521.78,466.783,520.602,468.162,518.018z"/>
					</g>
					<g>
						<path fill="#009245" d="M461.29,522.28c0,0,6.707,1.315,7.502-5.093c0.797-6.408-0.704-20.699,7.075-24.517
							c7.775-3.819,10.449,0.02,9.716,1.547c-0.733,1.525-1.525,1.975-2.165,1.553c-0.64-0.421-0.884,0.055-0.243,0.478
							c0.639,0.42,3.175,0.349,3.736-2.163c0.563-2.511-2.845-4.822-5.146-5.034c-2.302-0.21-6.975,0.832-11.12,4.633
							c-4.146,3.801-6.002,14.84-6.692,17.736c-0.692,2.895-2.716,6.019-3.459,7.74C459.752,520.879,460.173,522,461.29,522.28z"/>
					</g>
					<g>
						<path fill="#006837" d="M462.146,509.967c0,0-0.611-6.085-3.33-9.006c-2.718-2.921-5.936-1.923-6.834-0.292
							c-0.896,1.631-0.424,4.349,0.626,4.462c1.052,0.114,2.536,0.152,3.076-0.975c0,0-0.03-1.029-0.671-0.474
							c-0.643,0.555-2.313,1.139-2.417-0.318c-0.104-1.457,0.246-2.844,2.088-2.427c1.84,0.421,3.932,2.269,3.427,5.304
							c-0.507,3.038-1.275,6.266-2.595,8.856c-1.32,2.588-0.19,7.406,2.673,6.91C461.05,521.512,462.641,516.223,462.146,509.967z"
							/>
					</g>
				</g>
			</g>
			<g>
				<g>
					<polygon fill="#D9E021" points="455.031,475.953 455.488,476.951 457.236,477.498 455.488,478.043 455.031,479.042 
						454.573,478.043 452.562,477.498 454.573,476.951 					"/>
				</g>
				<g>
					<polygon fill="#D9E021" points="462.89,473.432 463.347,474.431 465.095,474.977 463.347,475.523 462.89,476.522 
						462.432,475.523 460.421,474.977 462.432,474.431 					"/>
				</g>
				<g>
					<polygon fill="#D9E021" points="464.019,482.521 464.476,483.518 466.224,484.065 464.476,484.611 464.019,485.609 
						463.561,484.611 461.55,484.065 463.561,483.518 					"/>
				</g>
				<g>
					<polygon fill="#D9E021" points="471.343,479.43 471.801,480.43 473.548,480.976 471.801,481.521 471.343,482.521 
						470.886,481.521 468.874,480.976 470.886,480.43 					"/>
				</g>
				<g>
					<polygon fill="#D9E021" points="453.979,489.026 454.436,490.025 456.183,490.571 454.436,491.117 453.979,492.116 
						453.521,491.117 451.51,490.571 453.521,490.025 					"/>
				</g>
				<g>
					<polygon fill="#D9E021" points="450.52,481.737 450.978,482.735 452.725,483.281 450.978,483.828 450.52,484.826 
						450.063,483.828 448.051,483.281 450.063,482.735 					"/>
				</g>
				<g>
					<polygon fill="#D9E021" points="457.368,470.344 457.825,471.341 459.572,471.888 457.825,472.435 457.368,473.432 
						456.91,472.435 454.898,471.888 456.91,471.341 					"/>
				</g>
				<g>
					<polygon fill="#D9E021" points="462.89,491.992 463.347,492.99 465.095,493.536 463.347,494.082 462.89,495.081 
						462.432,494.082 460.421,493.536 462.432,492.99 					"/>
				</g>
				<g>
					<polygon fill="#D9E021" points="457.004,481.737 457.461,482.735 459.21,483.281 457.461,483.828 457.004,484.826 
						456.547,483.828 454.536,483.281 456.547,482.735 					"/>
				</g>
				<g>
					<polygon fill="#D9E021" points="472.136,485.938 472.594,486.936 474.34,487.482 472.594,488.028 472.136,489.026 
						471.679,488.028 469.667,487.482 471.679,486.936 					"/>
				</g>
				<g>
					<polygon fill="#D9E021" points="471.343,500.98 471.801,501.978 473.548,502.524 471.801,503.07 471.343,504.068 
						470.886,503.07 468.874,502.524 470.886,501.978 					"/>
				</g>
				<g>
					<polygon fill="#D9E021" points="460.553,498.046 461.01,499.044 462.757,499.591 461.01,500.137 460.553,501.135 
						460.095,500.137 458.085,499.591 460.095,499.044 					"/>
				</g>
				<g>
					<polygon fill="#D9E021" points="448.183,489.81 448.641,490.808 450.388,491.354 448.641,491.901 448.183,492.898 
						447.726,491.901 445.714,491.354 447.726,490.808 					"/>
				</g>
				<g>
					<g>
						<path fill="#006837" d="M465.043,487.69l1.192,1.01c0.101,0.149-0.087-0.148,0,0h0.018c0.089-0.16-0.105,0.144-0.018,0
							l1.183-1.01l0,0l-0.911,1.292l0.939,1.38l0,0l-1.231-1.065c-0.105-0.155,0.095,0.16,0,0h-0.011c-0.089,0.16,0.1-0.161,0,0
							L465,490.363l0,0l0.949-1.364L465.043,487.69L465.043,487.69z"/>
					</g>
				</g>
				<g>
					<g>
						<path fill="#006837" d="M466.472,472.096l1.192,1.011c0.1,0.149-0.087-0.149,0,0h0.018c0.088-0.16-0.105,0.143-0.018,0
							l1.183-1.011l0,0l-0.911,1.292l0.938,1.381l0,0l-1.232-1.066c-0.104-0.155,0.095,0.161,0,0h-0.01c-0.09,0.161,0.1-0.161,0,0
							l-1.204,1.066l0,0l0.95-1.365L466.472,472.096L466.472,472.096z"/>
					</g>
				</g>
				<g>
					<g>
						<path fill="#006837" d="M449.21,475.953l1.192,1.01c0.1,0.149-0.088-0.149,0,0h0.018c0.088-0.16-0.105,0.144-0.018,0
							l1.182-1.01l0,0l-0.91,1.292l0.939,1.381l0,0l-1.232-1.066c-0.104-0.155,0.095,0.16,0,0h-0.01c-0.089,0.16,0.099-0.161,0,0
							l-1.204,1.066l0,0l0.949-1.364L449.21,475.953L449.21,475.953z"/>
					</g>
				</g>
				<g>
					<g>
						<path fill="#006837" d="M463.915,478.626l1.193,1.01c0.1,0.148-0.088-0.149,0,0h0.017c0.088-0.16-0.105,0.143-0.017,0
							l1.182-1.01l0,0l-0.911,1.292l0.939,1.381l0,0l-1.232-1.065c-0.104-0.155,0.095,0.16,0,0h-0.011c-0.089,0.16,0.1-0.161,0,0
							l-1.204,1.065l0,0l0.95-1.364L463.915,478.626L463.915,478.626z"/>
					</g>
				</g>
				<g>
					<g>
						<path fill="#006837" d="M458.944,486.145l1.192,1.011c0.1,0.149-0.087-0.15,0,0h0.018c0.088-0.161-0.106,0.143-0.018,0
							l1.183-1.011l0,0l-0.912,1.294l0.94,1.379l0,0l-1.232-1.065c-0.105-0.154,0.094,0.16,0,0h-0.011c-0.089,0.16,0.1-0.16,0,0
							l-1.204,1.065l0,0l0.95-1.363L458.944,486.145L458.944,486.145z"/>
					</g>
				</g>
				<g>
					<g>
						<path fill="#006837" d="M455.005,494.32l1.191,1.01c0.101,0.149-0.087-0.148,0,0h0.018c0.089-0.16-0.105,0.143-0.018,0
							l1.183-1.01l0,0l-0.911,1.291l0.938,1.381l0,0l-1.231-1.066c-0.105-0.155,0.095,0.161,0,0h-0.011c-0.089,0.161,0.1-0.161,0,0
							l-1.204,1.066l0,0l0.95-1.365L455.005,494.32L455.005,494.32z"/>
					</g>
				</g>
				<g>
					<g>
						<path fill="#006837" d="M468.488,490.779l1.192,1.011c0.101,0.149-0.087-0.149,0,0h0.018c0.088-0.161-0.107,0.143-0.018,0
							l1.182-1.011l0,0l-0.911,1.293l0.939,1.38l0,0l-1.232-1.066c-0.104-0.154,0.095,0.161,0,0h-0.01c-0.089,0.161,0.1-0.16,0,0
							l-1.204,1.066l0,0l0.949-1.364L468.488,490.779L468.488,490.779z"/>
					</g>
				</g>
				<g>
					<g>
						<path fill="#006837" d="M470.337,506.409l1.192,1.01c0.101,0.149-0.087-0.149,0,0h0.018c0.088-0.16-0.105,0.144-0.018,0
							l1.183-1.01l0,0l-0.911,1.292l0.938,1.381l0,0l-1.231-1.067c-0.105-0.154,0.094,0.162,0,0h-0.011c-0.089,0.162,0.1-0.16,0,0
							l-1.204,1.067l0,0l0.95-1.365L470.337,506.409L470.337,506.409z"/>
					</g>
				</g>
				<g>
					<g>
						<path fill="#006837" d="M462.708,502.524l1.192,1.011c0.1,0.149-0.088-0.149,0,0h0.017c0.088-0.161-0.105,0.144-0.017,0
							l1.182-1.011l0,0l-0.911,1.293l0.939,1.38l0,0l-1.232-1.066c-0.104-0.154,0.094,0.161,0,0h-0.01c-0.09,0.161,0.099-0.16,0,0
							l-1.205,1.066l0,0l0.95-1.364L462.708,502.524L462.708,502.524z"/>
					</g>
				</g>
				<g>
					<g>
						<path fill="#006837" d="M446.873,500.497l1.192,1.01c0.101,0.149-0.087-0.148,0,0h0.018c0.089-0.16-0.105,0.144-0.018,0
							l1.183-1.01l0,0l-0.911,1.292l0.939,1.381l0,0l-1.232-1.067c-0.104-0.154,0.095,0.162,0,0h-0.01c-0.089,0.162,0.1-0.159,0,0
							l-1.204,1.067l0,0l0.95-1.365L446.873,500.497L446.873,500.497z"/>
					</g>
				</g>
				<g>
					<g>
						<path fill="#006837" d="M446.873,484.809l1.192,1.011c0.101,0.149-0.087-0.149,0,0h0.018c0.089-0.16-0.105,0.143-0.018,0
							l1.183-1.011l0,0l-0.911,1.292l0.939,1.381l0,0l-1.232-1.067c-0.104-0.154,0.095,0.162,0,0h-0.01c-0.089,0.162,0.1-0.16,0,0
							l-1.204,1.067l0,0l0.95-1.365L446.873,484.809L446.873,484.809z"/>
					</g>
				</g>
				<g>
					<g>
						<path fill="#006837" d="M458.031,478.095l1.192,1.01c0.101,0.149-0.087-0.149,0,0h0.018c0.088-0.16-0.106,0.143-0.018,0
							l1.182-1.01l0,0l-0.911,1.292l0.939,1.382l0,0l-1.232-1.068c-0.104-0.154,0.096,0.162,0,0h-0.01c-0.089,0.162,0.1-0.16,0,0
							l-1.204,1.068l0,0l0.949-1.365L458.031,478.095L458.031,478.095z"/>
					</g>
				</g>
				<g>
					<g>
						<path fill="#006837" d="M468.488,475.185l1.192,1.012c0.101,0.149-0.087-0.15,0,0h0.018c0.088-0.162-0.107,0.143-0.018,0
							l1.182-1.012l0,0l-0.911,1.293l0.939,1.38l0,0l-1.232-1.066c-0.104-0.154,0.095,0.16,0,0h-0.01c-0.089,0.16,0.1-0.16,0,0
							l-1.204,1.066l0,0l0.949-1.363L468.488,475.185L468.488,475.185z"/>
					</g>
				</g>
			</g>
		</g>
		<g>
			<g>
				<rect x="84.7" y="549.26" fill="#F9A75E" width="466.885" height="20.482"/>
			</g>
			<g>
				<rect x="99.252" y="569.742" fill="#A67C52" width="441.416" height="111.186"/>
			</g>
			<g>
				<rect x="99.252" y="569.742" fill="#824900" width="441.416" height="6.501"/>
			</g>
			<g>
				<rect x="106.527" y="680.928" fill="#A67C52" width="42.04" height="87.775"/>
			</g>
			<g>
				<rect x="492.162" y="680.928" fill="#A67C52" width="41.232" height="87.775"/>
			</g>
			<g>
				<rect x="106.527" y="680.928" fill="#824900" width="42.04" height="5.85"/>
			</g>
			<g>
				<rect x="492.162" y="680.928" fill="#824900" width="41.232" height="5.85"/>
			</g>
		</g>
		<g>
			<g>
				<path fill="#B98B44" d="M218.576,530.374h-71.313c-5.117,0-9.265,4.148-9.265,9.265c0,5.117,4.148,9.265,9.265,9.265h71.313
					V530.374z"/>
			</g>
			<g>
				<rect x="145.754" y="532.959" fill="#FFFFFF" width="72.822" height="12.497"/>
			</g>
		</g>
		<g>
			<g>
				<path fill="#0071BC" d="M207.915,511.668h-71.313c-5.117,0-9.265,4.149-9.265,9.265s4.148,9.265,9.265,9.265h71.313V511.668z"/>
			</g>
			<g>
				<rect x="135.094" y="514.253" fill="#FFFFFF" width="72.821" height="12.497"/>
			</g>
		</g>
		<g>
			<g>
				<path fill="#754C24" d="M226.332,493.975h-71.313c-5.116,0-9.265,4.148-9.265,9.265c0,5.116,4.149,9.265,9.265,9.265h71.313
					V493.975z"/>
			</g>
			<g>
				<rect x="153.511" y="496.56" fill="#FFFFFF" width="72.821" height="12.496"/>
			</g>
		</g>
		<g>
			<g>
				<path fill="#006837" d="M204.071,476.232h-71.313c-5.117,0-9.265,4.148-9.265,9.265c0,5.117,4.148,9.265,9.265,9.265h71.313
					V476.232z"/>
			</g>
			<g>
				<rect x="131.249" y="478.817" fill="#FFFFFF" width="72.821" height="12.497"/>
			</g>
		</g>
		<g>
			<path fill="#007196" d="M318.849,473.542c0,23.762-19.263,43.023-43.025,43.023s-43.024-19.262-43.024-43.023
				c0-23.762,19.263-43.024,43.024-43.024S318.849,449.78,318.849,473.542"/>
			<path fill="#A3734E" d="M273.983,427.412c0,0,47.282,0.691,47.627,48.316c0,42.449-49.352,43.83-49.352,43.83l-0.345,4.142
				c0,0,54.182-2.07,54.182-47.626c0-52.458-51.766-52.803-51.766-52.803L273.983,427.412z"/>
			<path fill="#8B5E3C" d="M297.915,546.263c-6.009-6.371-14.523-10.353-23.973-10.353c-9.448,0-17.963,3.983-23.972,10.353
				c14.73,6.283,31.339,6.523,46.245,0.668L297.915,546.263z"/>
			<rect x="273.293" y="521.282" fill="#A3734E" width="4.487" height="17.256"/>
			<line fill="none" stroke="#FFFFFF" stroke-miterlimit="10" x1="275.824" y1="430.518" x2="275.824" y2="516.566"/>
			<path fill="none" stroke="#FFFFFF" stroke-miterlimit="10" d="M273.912,430.42c0,0-12.746,12.746-12.746,43.122
				c0,30.376,11.79,43.254,11.79,43.254"/>
			<path fill="none" stroke="#FFFFFF" stroke-miterlimit="10" d="M271.363,430.633c0,0-26.128,14.445-26.128,44.184
				c0,29.739,22.942,41.343,22.942,41.343"/>
			<path fill="none" stroke="#FFFFFF" stroke-miterlimit="10" d="M279.802,430.42c0,0,12.745,12.746,12.745,43.122
				c0,30.376-11.789,43.254-11.789,43.254"/>
			<path fill="none" stroke="#FFFFFF" stroke-miterlimit="10" d="M282.351,430.633c0,0,26.128,14.445,26.128,44.184
				c0,29.739-22.942,41.343-22.942,41.343"/>
			<line fill="none" stroke="#FFFFFF" stroke-miterlimit="10" x1="232.799" y1="473.542" x2="318.849" y2="473.542"/>
			<path fill="none" stroke="#FFFFFF" stroke-miterlimit="10" d="M265.946,431.642c0,0,2.071,3.505,9.718,3.505
				c7.647,0,12.268-2.709,12.268-2.709"/>
			<path fill="none" stroke="#FFFFFF" stroke-miterlimit="10" d="M263.929,514.752c0,0,5.31-3.186,11.895-3.186
				c6.585,0,11.896,3.399,11.896,3.399"/>
		</g>
	</g>
	<g clip-path="url(#SVGID_2_)">
		<g>
			<path fill="#534741" d="M111.363,1092.49v-70.614c0-19.895-30.852-19.895-30.852,0v70.614H111.363z"/>
		</g>
		<g>
			<path fill="#534741" d="M131.964,1092.49h30.784c0.008-0.233,0.032-0.452,0.032-0.688c-0.024-24.351-0.985-48.788,2.058-73.016
				c1.049-8.361-7.812-15.424-15.426-15.424c-9.202,0-14.375,7.081-15.426,15.424c-3.043,24.228-2.083,48.665-2.057,73.016
				C131.93,1092.038,131.956,1092.257,131.964,1092.49z"/>
		</g>
		<g>
			<path fill="#FFD8C5" d="M243.845,737.191c-0.392-0.048-0.778-0.106-1.167-0.164c-0.092,0.271-0.191,0.532-0.269,0.815
				c-7.946,28.684-30.784,52.354-55.346,68.044c-13.367,8.534-1,29.902,12.456,21.31c29.955-19.136,57.013-47.859,66.689-82.79
				c0.011-0.051,0.019-0.096,0.034-0.141C258.916,741.401,251.542,738.726,243.845,737.191z"/>
		</g>
		<path fill="#FFD8C5" d="M50.867,829.566c0,0-43.371,51.997,15.247,64.736l4.456-44.008L50.867,829.566z"/>
		<path fill="#FFD8C5" d="M144.272,809.073c0,7.382-7.369,13.367-16.455,13.367l0,0c-9.087,0-16.453-5.985-16.453-13.367v-12.34
			c0-7.387,7.366-13.375,16.453-13.375l0,0c9.085,0,16.455,5.988,16.455,13.375V809.073z"/>
		<path fill="#FFD8C5" d="M204.154,719.843c-1.678-0.255-3.311,0.361-4.773,0.999c-6.462-33.07-35.582-58.032-70.545-58.032
			c-34.65,0-63.568,24.511-70.373,57.144c-0.497-0.065-1.006-0.11-1.521-0.11c-6.6,0-7.208,4.439-7.208,11.037
			c0,6.606,0.607,12.865,7.208,12.865c0.197,0,0.387-0.023,0.582-0.033c4.436,35.449,34.659,62.882,71.313,62.882
			c36.873,0,67.244-27.764,71.394-63.523c1.232,0.425,2.717,1.334,3.925,0.674c5.491-3.023,3.308-6.26,3.308-12.865
			C207.461,724.281,206.776,720.242,204.154,719.843z"/>
		<path fill="#5A3D1B" d="M56.941,719.843c0,0,0.247-43.921,49.61-57.033c0,0,62.731-3.346,67.874-16.201
			c0,0-6.685,13.89-22.626,16.201c0,0,12.34,5.909,30.337-4.375c0,0-3.84,14.617-16.058,14.764c0,0,29.977,12.868,33.303,47.644
			c0,0,2.068,50.884-31.425,74.179c-47.719,33.194-78.236,0-78.236,0S50.523,777.141,56.941,719.843z"/>
		<path fill="#389293" d="M190.549,950.914c0,20.446-16.576,37.024-37.024,37.024h-50.391c-20.443,0-37.021-16.578-37.021-37.024
			V849.856c0-20.443,16.577-37.018,37.021-37.018h50.391c20.448,0,37.024,16.574,37.024,37.018V950.914z"/>
		<path fill="#389293" d="M68.568,864.494l23.538-12.142c9.628-4.968,13.41-16.801,8.442-26.431
			c-4.969-9.627-16.801-13.409-26.431-8.441l-23.54,12.143L68.568,864.494z"/>
		<path fill="#389293" d="M214.366,826.68l-20.301,17.014c-8.305,6.959-20.68,5.87-27.64-2.434
			c-6.958-8.309-5.87-20.683,2.434-27.642l20.301-17.011L214.366,826.68z"/>
		<path fill="#FFD8C5" d="M260.478,710.271c-8.215-1.58-13.052,8.882-15.562,17.182c-1.144-0.234-2.609-0.349-4.494-0.264
			c-10.283,0.461,2.255,9.838,2.255,9.838l23.564,7.237C266.242,744.265,273.848,712.845,260.478,710.271z"/>
		<g>
			<rect x="40.124" y="867.922" fill="#513014" width="177.373" height="158.327"/>
			<rect x="40.125" y="849.132" fill="#754C24" width="12.87" height="297.174"/>
			<rect x="204.627" y="849.132" fill="#754C24" width="12.87" height="297.174"/>
		</g>
		<path fill="#281E1A" d="M80.512,1092.49c0,0-1.374,14.741,13.712,15.768c15.082,1.029,17.139-15.768,17.139-15.768H80.512z"/>
		<path fill="#281E1A" d="M131.799,1092.49c0,0-1.372,14.741,13.713,15.768c15.081,1.029,17.139-15.768,17.139-15.768H131.799z"/>
	</g>
	<g clip-path="url(#SVGID_2_)">
		<g>
			<path fill="#BC1769" d="M429.686,1085.729v-64.85c0-18.271-28.332-18.271-28.332,0v64.85H429.686z"/>
		</g>
		<g>
			<path fill="#BC1769" d="M448.605,1085.729h28.27c0.006-0.216,0.03-0.418,0.03-0.634c-0.024-22.36-0.906-44.803,1.888-67.05
				c0.965-7.681-7.176-14.166-14.167-14.166c-8.448,0-13.2,6.507-14.165,14.166c-2.794,22.247-1.912,44.689-1.888,67.05
				C448.573,1085.311,448.597,1085.513,448.605,1085.729z"/>
		</g>
		<g>
			<path fill="#FFD8C5" d="M551.349,759.447c-0.361-0.045-0.717-0.098-1.072-0.151c-0.086,0.249-0.177,0.489-0.249,0.749
				c-7.297,26.34-28.27,48.077-50.827,62.484c-12.274,7.839-0.915,27.462,11.441,19.57c27.509-17.572,52.354-43.951,61.241-76.027
				c0.009-0.044,0.018-0.089,0.029-0.131C565.188,763.313,558.417,760.856,551.349,759.447z"/>
		</g>
		<path fill="#BC1769" d="M502.404,955.713c0,18.776-15.222,34.001-33.999,34.001h-46.277c-18.773,0-33.995-15.225-33.995-34.001
			v-92.804c0-18.773,15.222-33.994,33.995-33.994h46.277c18.777,0,33.999,15.221,33.999,33.994V955.713z"/>
		<path fill="#BC1769" d="M524.274,841.626l-18.64,15.623c-7.626,6.392-18.99,5.392-25.381-2.234
			c-6.391-7.629-5.394-18.993,2.235-25.381l18.641-15.624L524.274,841.626z"/>
		<path fill="#FFD8C5" d="M566.623,734.727c-7.546-1.447-11.988,8.155-14.292,15.78c-1.051-0.219-2.395-0.322-4.126-0.245
			c-9.443,0.423,2.072,9.034,2.072,9.034l21.636,6.646C571.913,765.941,578.899,737.089,566.623,734.727z"/>
		<g>
			<path fill="#FFD8C5" d="M333.571,759.447c0.358-0.045,0.713-0.098,1.068-0.151c0.086,0.249,0.178,0.489,0.25,0.749
				c7.296,26.34,28.27,48.077,50.827,62.484c12.273,7.839,0.915,27.462-11.441,19.57c-27.509-17.572-52.354-43.951-61.241-76.027
				c-0.012-0.044-0.018-0.089-0.03-0.131C319.728,763.313,326.502,760.856,333.571,759.447z"/>
		</g>
		<path fill="#BC1769" d="M360.642,841.626l18.64,15.623c7.626,6.392,18.993,5.392,25.381-2.234
			c6.392-7.629,5.395-18.993-2.234-25.381l-18.641-15.624L360.642,841.626z"/>
		<path fill="#FFD8C5" d="M318.296,734.727c7.543-1.447,11.983,8.155,14.289,15.78c1.051-0.219,2.396-0.322,4.127-0.245
			c9.442,0.423-2.073,9.034-2.073,9.034l-21.636,6.646C313.003,765.941,306.017,737.089,318.296,734.727z"/>
		<g>
			<rect x="364.265" y="879.499" fill="#513014" width="162.886" height="145.398"/>
			<rect x="364.265" y="862.244" fill="#754C24" width="11.821" height="272.902"/>
			<rect x="515.331" y="862.244" fill="#754C24" width="11.82" height="272.902"/>
		</g>
		<path fill="#281E1A" d="M401.354,1085.729c0,0-1.261,13.534,12.592,14.479c13.851,0.943,15.739-14.479,15.739-14.479H401.354z"/>
		<path fill="#281E1A" d="M448.451,1085.729c0,0-1.258,13.534,12.593,14.479c13.851,0.943,15.739-14.479,15.739-14.479H448.451z"/>
		<path fill="#EBAA20" d="M522.956,747.81c0,0-0.568,14.538-7.782,12.167c-3.642-1.199-6.11-9.446-11.151-18.892
			c-0.494-3.233-1.267-6.604-2.424-10.08c-1.823-5.464-4.287-10.458-7.421-14.904c-10.42-14.757-28.344-23.425-55.584-22.96
			c0,0-1.817-7.27-6.667-6.361c-4.843,0.909,0.305,6.361,0.305,6.361s-10.601-2.723-11.509,0.303
			c-0.912,3.031,4.239,3.031,4.239,3.031s-10.266,2.8-20.316,12.889c-6.109,6.128-12.631,14.807-15.73,27.45
			c-0.003,0.003-0.003,0.012-0.006,0.018c-6.755,11.1-9.395,21.769-13.576,23.146c-7.213,2.371-7.788-12.167-7.788-12.167
			c-12.395,6.507-10.998,31.729,14.501,59.03c19.747,21.147,45.715,26.132,63.207,23.906c17.495,2.226,43.456-2.759,63.206-23.906
			C533.957,779.539,535.357,754.317,522.956,747.81z"/>
	</g>
	<g clip-path="url(#SVGID_2_)">
		<g>
			<path fill="#FFD8C5" d="M780.398,818.296c0,12.095-9.808,21.896-21.899,21.896l0,0c-12.096,0-21.897-9.802-21.897-21.896v-6.454
				c0-12.095,9.802-21.9,21.897-21.9l0,0c12.092,0,21.899,9.806,21.899,21.9V818.296z"/>
			<g>
				<path fill="#EEC84D" d="M861.479,682.07c-17.424-5.071-36.566-4.767-45.587,17.306c-19.916-16.323-35.68-26.27-59.929-19.333
					c-23.237-5.119-37.178,0.101-54.228,19.253c-12.458-20.428-23.337-23.947-39.729-16.292
					c-16.394,7.668-54.693,72.482,13.503,112.707c-16.396-71.511,19.302-74.177,19.302-74.177s-1.458,75.219,40.51,86.708
					c13.598,3.736,34.739,5.79,53.245-1.839c49.034-20.207,34.353-84.194,34.353-84.194s28.218-4.718,21.552,73.555
					C900.644,743.428,878.901,687.148,861.479,682.07z"/>
				<path fill="#DE4949" d="M710.685,703.514c4.854-5.885-5.158-9.53-7.066-9.322c-1.909,0.213-6.477-6.494-9.997-1.584
					c-2.475,3.471-1.459,10.119-0.655,13.735c-1.702,1.079-2.752,3.05-2.536,5.196c0.031,0.239,0.093,0.461,0.15,0.695
					c-3.102,1.685-9.332,5.564-10.304,9.961c-1.29,5.896,6.755,4.817,7.873,6.375c1.125,1.563,10.526,6.558,11.649-0.991
					c0.661-4.5-0.118-9.095-0.863-12.083c1.516-1.016,2.457-2.738,2.408-4.66C704.052,709.377,707.86,706.926,710.685,703.514z"/>
				<path fill="#DE4949" d="M804.916,701.697c-4.853-5.888,5.15-9.533,7.062-9.322c1.909,0.212,6.478-6.5,9.994-1.578
					c2.478,3.465,1.459,10.11,0.655,13.73c1.704,1.079,2.755,3.05,2.538,5.19c-0.034,0.242-0.094,0.467-0.15,0.701
					c3.107,1.682,9.331,5.565,10.303,9.955c1.293,5.901-6.753,4.814-7.871,6.375c-1.128,1.561-10.525,6.564-11.651-0.986
					c-0.664-4.498,0.126-9.101,0.87-12.081c-1.52-1.013-2.464-2.743-2.408-4.668C811.538,707.56,807.73,705.112,804.916,701.697z"/>
			</g>
		</g>
		<g>
			<g>
				<g>
					<path fill="#FFD8C5" d="M878.817,854.911c-0.087-0.271-0.165-0.545-0.242-0.817c-0.245,0.05-0.486,0.084-0.74,0.153
						c-25.481,6.313-51.743,1.041-72.173-8.529c-11.121-5.207-24.233,11.28-13.04,16.519c24.92,11.673,56.579,17.648,87.61,9.959
						c0.048-0.014,0.082-0.025,0.126-0.038C880.291,866.301,880.066,860.483,878.817,854.911z"/>
				</g>
				<path fill="#FFD8C5" d="M905.683,854.896c-1.376-5.925-11.294-4.868-18.736-3.177c-0.175-0.832-0.559-1.817-1.229-2.997
					c-3.672-6.443-7.142,5.371-7.142,5.371l1.783,18.063C880.358,872.157,907.924,864.532,905.683,854.896z"/>
				<g>
					<path fill="#98269B" d="M742.913,1081.997v-63.089c0-17.773-27.565-17.773-27.565,0v63.089H742.913z"/>
				</g>
				<g>
					<path fill="#98269B" d="M761.318,1081.997h27.499c0.009-0.207,0.032-0.403,0.032-0.614
						c-0.023-21.753-0.882-43.588,1.837-65.231c0.94-7.474-6.979-13.779-13.783-13.779c-8.219,0-12.841,6.327-13.779,13.779
						c-2.719,21.643-1.86,43.478-1.838,65.231C761.286,1081.594,761.309,1081.79,761.318,1081.997z"/>
				</g>
				<path fill="#98269B" d="M813.656,955.513c0,18.268-14.808,33.075-33.074,33.075H735.56c-18.264,0-33.071-14.808-33.071-33.075
					v-90.282c0-18.265,14.808-33.077,33.071-33.077h45.022c18.267,0,33.074,14.813,33.074,33.077V955.513z"/>
				<path fill="#98269B" d="M812.652,878.284l-22.746-6.52c-9.308-2.667-14.688-12.379-12.021-21.681
					c2.666-9.305,12.375-14.688,21.681-12.021l22.744,6.521L812.652,878.284z"/>
				<g>
					<path fill="#FFD8C5" d="M649.402,764.572c0.352-0.044,0.698-0.093,1.043-0.148c0.083,0.242,0.173,0.479,0.242,0.73
						c7.099,25.623,27.503,46.771,49.448,60.786c11.94,7.629,0.889,26.72-11.132,19.039c-26.763-17.094-50.934-42.758-59.578-73.963
						c-0.009-0.045-0.017-0.084-0.029-0.125C635.94,768.336,642.526,765.945,649.402,764.572z"/>
				</g>
				<path fill="#98269B" d="M675.743,844.523l18.134,15.2c7.418,6.218,18.475,5.241,24.691-2.177
					c6.218-7.418,5.248-18.476-2.173-24.692l-18.136-15.198L675.743,844.523z"/>
				<path fill="#FFD8C5" d="M634.544,740.524c7.341-1.41,11.662,7.935,13.903,15.35c1.022-0.213,2.33-0.311,4.014-0.236
					c9.187,0.409-2.016,8.787-2.016,8.787l-21.049,6.468C629.396,770.893,622.601,742.819,634.544,740.524z"/>
				<g>
					<rect x="679.268" y="881.367" fill="#513014" width="158.465" height="141.448"/>
					<rect x="679.268" y="864.581" fill="#754C24" width="11.5" height="265.496"/>
					<rect x="826.233" y="864.581" fill="#754C24" width="11.499" height="265.496"/>
				</g>
			</g>
			<path fill="#281E1A" d="M715.349,1081.997c0,0-1.227,13.167,12.252,14.086c13.475,0.918,15.313-14.086,15.313-14.086H715.349z"/>
			<path fill="#281E1A" d="M761.168,1081.997c0,0-1.224,13.167,12.251,14.086c13.475,0.918,15.313-14.086,15.313-14.086H761.168z"/>
		</g>
	</g>
	<g clip-path="url(#SVGID_2_)">
		<g>
			<g>
				<path fill="#F9DCCC" d="M1081.226,1053.014c1.143-1.971,1.756-3.952,2.115-5.775c-3.709-1.002-6.667-1.391-6.667-1.391
					l-2.289-69.622l-21.996-0.521c0,0,2.589,55.451,6.033,79.578C1064.652,1056.246,1078.449,1057.801,1081.226,1053.014z"/>
				<path fill="#C1272D" d="M1097.982,1061.222c1.678-8.052-7.789-12.118-14.642-13.983c-0.359,1.823-0.973,3.805-2.115,5.775
					c-2.776,4.787-16.573,3.232-22.804,2.27c0.842,5.843,1.719,9.883,2.636,10.818
					C1065.724,1070.848,1095.383,1073.612,1097.982,1061.222z"/>
				<path fill="#F9DCCC" d="M1002.89,1054.318c-0.909-2.096-1.294-4.145-1.453-5.986c3.716-0.578,6.641-0.592,6.641-0.592
					l9.611-68.9l21.495,2.095c0,0-8.396,54.797-14.313,78.368C1018.707,1059.505,1005.089,1059.385,1002.89,1054.318z"/>
				<path fill="#C1272D" d="M985.68,1060.461c-0.793-8.197,8.874-11.111,15.757-12.129c0.159,1.842,0.544,3.891,1.453,5.986
					c2.199,5.066,15.817,5.187,21.982,4.984c-1.43,5.701-2.726,9.601-3.707,10.418
					C1016.108,1073.879,986.9,1073.074,985.68,1060.461z"/>
				<path fill="#F9DCCC" d="M1108.322,835.092l41.917-39.055c0,0,9.72,13.44,10.495,7.736c0.769-5.715-2.254-9.068-2.254-9.068
					s14.98,1.693,13.293-4.475c-1.687-6.159-11.635-3.938-11.635-3.938s11.555-6.108,8.604-11.499
					c-2.94-5.382-11.149,0.984-11.149,0.984s5.652-7.304,1.292-10.366c-4.387-3.05-9.659,12.7-9.659,12.7
					s-0.943-11.342-5.206-11.402c-3.938-0.048-3.797,6.301-2.429,12.13c0.106,0.478,0.233,0.961,0.366,1.426
					c1.681,6.178-46.709,41.123-46.709,41.123L1108.322,835.092z"/>
				<path fill="#F9DCCC" d="M987.877,884.375l-53.372,19.139c0,0,6.062,15.89,0.993,13.703c-5.076-2.196-6.281-6.722-6.281-6.722
					s-6.235,14.804-10.44,10.096c-4.19-4.71,2.687-12.852,2.687-12.852s-10.887,7.663-13.788,2.172
					c-2.913-5.486,6.471-9.88,6.471-9.88s-8.86,1.533-9.131-4.095c-0.263-5.626,14.909-2.571,14.909-2.571
					s-8.394-6.599-6.273-10.602c1.964-3.701,7.09-0.328,11.165,3.922c0.346,0.345,0.674,0.703,0.99,1.062
					c4.195,4.716,57.512-22.531,57.512-22.531L987.877,884.375z"/>
				<path fill="#C1272D" d="M1101.045,809.398c0,0-38.656,33.196-75.323,42.369c-36.669,9.154-58.507,15.714-58.507,15.714
					l8.312,24.932l26.754-5.121c0,0-17.721,89.946-23.645,106.328l143.146-9.901l-33.565-126.047l30.825-26.4L1101.045,809.398z"/>
				<path fill="#DE595E" d="M999.38,901.51c0,0-14.82,75.728-20.744,92.11l143.146-9.901l-27.202-102.155L999.38,901.51z"/>
				<path fill="#F2F2F2" d="M1095.691,879.357c-17.8,3.744-77.741,16.363-96.037,20.209c-0.252,1.786-0.522,3.688-0.816,5.688
					l97.795-20.587L1095.691,879.357z"/>
				<path fill="#862703" d="M1093.292,791.983c0,0,21.802,0.773,24.45,35.687c0,0-2.141,10.191-20.289-5.244
					c-18.158-15.427-18.382-25.555-18.382-25.555L1093.292,791.983z"/>
				<path fill="#862703" d="M987.102,814.122c0,0,5.785,25.195-29.88,36.812c0,0-7.707-3.834-0.234-27.269
					c7.481-23.434,16.348-27.067,16.348-27.067L987.102,814.122z"/>
				<path fill="#862703" d="M1005.873,711.263c-58.589,17.632-39.575,81.715-39.575,81.715l7.287,20.884
					c0,0,14.293,32.279,60.784,30.176c46.476-2.1,56.603-40.382,56.603-40.382l5.177-19.497
					C1096.148,784.158,1091.213,685.577,1005.873,711.263z"/>
			</g>
			<g>
				<g>
					<rect x="973.344" y="878.131" fill="#513014" width="149.096" height="133.085"/>
					<rect x="973.344" y="862.338" fill="#754C24" width="10.82" height="249.797"/>
					<rect x="1111.62" y="862.338" fill="#754C24" width="10.819" height="249.797"/>
				</g>
			</g>
		</g>
	</g>
</g>
</svg>
