<?xml version="1.0" encoding="utf-8"?>
<!-- Generator: Adobe Illustrator 17.0.0, SVG Export Plug-In . SVG Version: 6.00 Build 0)  -->
<!DOCTYPE svg PUBLIC "-//W3C//DTD SVG 1.1//EN" "http://www.w3.org/Graphics/SVG/1.1/DTD/svg11.dtd">
<svg version="1.1" id="Layer_3" xmlns="http://www.w3.org/2000/svg" xmlns:xlink="http://www.w3.org/1999/xlink" x="0px" y="0px"
	 width="501.514px" height="521px" viewBox="0 0 501.514 521" enable-background="new 0 0 501.514 521" xml:space="preserve">
<g>
	<defs>
		<rect id="SVGID_1_" x="-14" y="-12" width="536" height="544"/>
	</defs>
	<clipPath id="SVGID_2_">
		<use xlink:href="#SVGID_1_"  overflow="visible"/>
	</clipPath>
	<g clip-path="url(#SVGID_2_)">
		<rect y="493" fill="#2A2A2A" width="505" height="28"/>
		<path fill="#686644" d="M475.193,325.929h-12.737v-6.512h27.453c3.753,0,6.794-3.039,6.794-6.781v-35.648
			c0-3.766-3.041-6.802-6.794-6.802h-71.298c-3.755,0-6.793,3.036-6.793,6.802v35.648c0,3.742,3.038,6.781,6.793,6.781h27.159v6.512
			h-12.167c-3.741,0-6.778,3.037-6.778,6.779v0.902c0,3.742,3.037,6.778,6.778,6.778h41.59c3.742,0,6.793-3.036,6.793-6.778v-0.902
			C481.986,328.966,478.935,325.929,475.193,325.929z M422.431,314.853c-3.051,0-5.52-2.473-5.52-5.533v-29.039
			c0-3.053,2.469-5.508,5.52-5.508h63.644c3.061,0,5.533,2.455,5.533,5.508v29.039c0,3.061-2.473,5.533-5.533,5.533H422.431z
			 M475.34,332.047h-11.507c-0.711,0-1.273-0.564-1.273-1.259c0-0.702,0.563-1.281,1.273-1.281h11.507
			c0.696,0,1.268,0.579,1.268,1.281C476.607,331.484,476.036,332.047,475.34,332.047z"/>
		<g>
			<path fill="#686644" d="M52.461,40.675c5.763-4.32,6.94-12.496,2.629-18.267c-4.319-5.772-12.496-6.95-18.278-2.632
				c-4.67,3.494-6.329,9.52-4.514,14.747l-12.701,9.521c-1.583,1.175-1.801,3.542-0.492,5.293c1.303,1.738,3.644,2.199,5.213,1.021
				l12.713-9.521C41.543,44.064,47.781,44.169,52.461,40.675z M37.246,35.752c-3.036-4.073-2.208-9.858,1.859-12.912
				c4.085-3.048,9.856-2.217,12.913,1.859c3.039,4.076,2.207,9.861-1.859,12.911C46.075,40.661,40.307,39.83,37.246,35.752z"/>
			<path fill="#686644" d="M50.428,25.887c-0.413-0.556-0.895-1.024-1.407-1.422c1.133,2.958,0.236,6.41-2.418,8.395
				c-2.653,1.976-6.216,1.863-8.726-0.044c0.224,0.612,0.54,1.202,0.958,1.747c2.404,3.212,6.938,3.864,10.134,1.459
				C52.178,33.63,52.834,29.089,50.428,25.887z"/>
		</g>
		<path fill="#686644" d="M479.457,133.632l-3.21,7.401l-1.146-0.499l3.207-7.414l-2.646-1.144l-1.704,3.893l-1.152-0.494
			l1.691-3.903l-2.648-1.154l-1.697,3.903l-1.148-0.497l1.686-3.903l-2.655-1.154l-1.689,3.904l-1.153-0.496l1.692-3.902
			l-2.656-1.153l-3.214,7.403l-1.152-0.498l3.217-7.404l-2.656-1.152l-1.692,3.902l-1.146-0.509l1.683-3.891l-2.649-1.153
			l-1.703,3.895l-1.143-0.499l1.682-3.901l-2.648-1.144l-1.683,3.891l-1.166-0.495l1.704-3.905l-2.671-1.151l-3.205,7.413
			l-1.147-0.51l3.21-7.402l-2.649-1.154l-1.703,3.907l-1.151-0.496l1.691-3.905l-2.651-1.153l-1.696,3.905l-1.15-0.51l1.688-3.891
			l-2.653-1.153l-1.691,3.903l-1.155-0.507l1.693-3.893l-2.653-1.152l-3.214,7.403l-1.152-0.497l3.217-7.415l-2.659-1.143
			l-1.693,3.895l-1.142-0.499l1.681-3.901l-2.65-1.155l-1.702,3.907l-1.141-0.5l1.681-3.9l-2.648-1.155l-1.682,3.902l-1.165-0.494
			l1.702-3.907l-2.671-1.15l-3.208,7.401l-1.143-0.498l3.209-7.403l-5.305-2.297l-4.637,10.689l80.112,34.747l4.637-10.689
			L479.457,133.632z M483.758,143.551c-1.141-0.5-1.676-1.845-1.18-2.997c0.499-1.153,1.831-1.686,2.998-1.179
			c1.141,0.499,1.674,1.844,1.177,2.995C486.255,143.513,484.9,144.049,483.758,143.551z"/>
		<path fill="#686644" d="M349.971,359.25l-3.21,7.4l-1.146-0.499l3.207-7.413l-2.647-1.145l-1.704,3.894l-1.152-0.494l1.691-3.903
			l-2.648-1.154l-1.697,3.903l-1.148-0.497l1.685-3.902l-2.655-1.154l-1.688,3.904l-1.153-0.496l1.692-3.902l-2.656-1.153
			l-3.214,7.403l-1.152-0.498l3.217-7.404l-2.656-1.152l-1.692,3.902l-1.146-0.509l1.683-3.892l-2.649-1.152l-1.703,3.895
			l-1.142-0.498l1.682-3.901l-2.648-1.144l-1.683,3.891l-1.166-0.494l1.704-3.906l-2.671-1.15l-3.205,7.412l-1.147-0.51l3.21-7.402
			l-2.649-1.154l-1.703,3.907l-1.151-0.496l1.691-3.905l-2.651-1.153l-1.696,3.905l-1.149-0.51l1.688-3.891l-2.653-1.154
			l-1.691,3.903l-1.155-0.507l1.693-3.894l-2.653-1.152l-3.214,7.403l-1.152-0.497l3.217-7.415l-2.659-1.143l-1.693,3.895
			l-1.142-0.499l1.681-3.901l-2.65-1.154l-1.702,3.906l-1.141-0.5l1.681-3.9l-2.647-1.154l-1.682,3.901l-1.165-0.494l1.702-3.907
			l-2.671-1.15l-3.208,7.401l-1.143-0.497l3.209-7.403l-5.305-2.297l-4.637,10.689l80.112,34.748l4.637-10.689L349.971,359.25z
			 M354.271,369.168c-1.141-0.5-1.676-1.844-1.18-2.996c0.499-1.152,1.831-1.686,2.998-1.18c1.141,0.5,1.674,1.844,1.177,2.996
			C356.769,369.131,355.413,369.666,354.271,369.168z"/>
		<path fill="#686644" d="M163.982,68.432l-4.17-25.998c0.447-0.38,0.69-0.952,0.588-1.576l-1.704-10.583
			c-0.121-0.797-0.776-1.384-1.547-1.446l-0.687-4.287c-0.505-3.171-3.478-5.31-6.629-4.801c-3.141,0.489-5.291,3.473-4.794,6.627
			l0.443,2.721l7.847,0.356l-7.592,1.211c-0.711,0.309-1.159,1.054-1.027,1.853l1.703,10.598c0.093,0.608,0.51,1.089,1.047,1.312
			l4.17,25.998l7.589,7.814L163.982,68.432z M155.255,42.399c0.493-0.308,0.789-0.897,0.688-1.52l-1.485-9.245
			c-0.093-0.62-0.559-1.091-1.128-1.226l2.945-0.466c0.804-0.128,1.556,0.423,1.691,1.22l1.454,9.08
			c0.133,0.804-0.415,1.561-1.219,1.689L155.255,42.399z M152.396,70.033l-0.087-0.546c-0.162-1.02,0.526-1.958,1.523-2.123
			c0.87-0.135,1.694,0.354,2.005,1.128c0.047-0.832,0.68-1.545,1.542-1.697c0.872-0.149,1.692,0.354,2.004,1.128
			c0.059-0.832,0.681-1.546,1.554-1.696c0.996-0.166,1.945,0.525,2.103,1.522l0.097,0.548l-2.753,5.66l-3.609,0.58L152.396,70.033z"
			/>
		<path fill="#686644" d="M125.698,169.42l-4.673-2.381c0.037-0.679-0.329-1.34-0.97-1.667l-48.502-24.639
			c-0.059-0.734-0.31-1.489-0.767-2.146l-5.785-8.141c-1.368-1.943-4.049-2.39-5.976-1.023l-0.009,0.006l-4.704-6.626
			c-0.598-0.853-1.76-1.041-2.595-0.452c-0.837,0.606-1.035,1.758-0.448,2.593l4.706,6.644l-0.009,0.005
			c-1.925,1.367-2.385,4.05-1.017,5.976l5.783,8.158c0.466,0.66,1.082,1.128,1.765,1.427l4.101,30.717
			c-0.54,0.62-0.822,1.481-0.701,2.356l1.973,14.834c0.122,0.885,0.617,1.635,1.307,2.09l0.527,3.927
			c0.091,0.709,0.604,1.261,1.247,1.471l0.692,5.197c0.052,0.372,0.394,0.618,0.771,0.574c0.367-0.041,0.629-0.392,0.576-0.753
			l-0.687-5.149c0.637-0.349,1.037-1.054,0.94-1.803l-0.482-3.634c0.769-0.644,1.205-1.644,1.062-2.716L71.85,179.43
			c-0.141-1.075-0.833-1.928-1.748-2.34l-4.008-29.988c0.209-0.109,0.415-0.227,0.615-0.368l3.059-2.169
			c0.197-0.139,0.369-0.294,0.544-0.454l48.124,24.436c0.611,0.322,1.315,0.242,1.841-0.134c0.063-0.039,0.122-0.083,0.179-0.142
			l4.627,2.366c0.325,0.163,0.733,0.029,0.908-0.311C126.155,169.998,126.021,169.589,125.698,169.42z M64.15,139.905
			c-1.029,0.745-2.457,0.497-3.18-0.543c-0.733-1.038-0.498-2.456,0.543-3.181c1.029-0.734,2.458-0.497,3.18,0.544
			C65.426,137.742,65.189,139.183,64.15,139.905z"/>
		<path fill="#686644" d="M407.605,237.542l-4.674-2.381c0.037-0.679-0.329-1.34-0.97-1.667l-48.503-24.639
			c-0.059-0.734-0.311-1.489-0.767-2.146l-5.784-8.141c-1.368-1.943-4.05-2.39-5.977-1.023l-0.009,0.006l-4.704-6.625
			c-0.598-0.853-1.76-1.041-2.596-0.452c-0.836,0.606-1.034,1.758-0.447,2.593l4.705,6.644l-0.009,0.005
			c-1.925,1.367-2.385,4.05-1.017,5.975l5.783,8.158c0.467,0.66,1.082,1.128,1.765,1.427l4.101,30.718
			c-0.54,0.619-0.822,1.48-0.7,2.355l1.974,14.834c0.121,0.885,0.616,1.635,1.307,2.09l0.527,3.928
			c0.091,0.709,0.603,1.261,1.246,1.471l0.692,5.197c0.052,0.371,0.394,0.617,0.771,0.574c0.367-0.041,0.63-0.393,0.576-0.754
			l-0.687-5.148c0.638-0.35,1.037-1.055,0.941-1.803l-0.482-3.635c0.77-0.645,1.205-1.645,1.063-2.717l-1.974-14.834
			c-0.142-1.075-0.833-1.929-1.747-2.341l-4.009-29.988c0.209-0.109,0.415-0.227,0.614-0.368l3.06-2.169
			c0.197-0.139,0.369-0.294,0.544-0.454l48.124,24.436c0.611,0.322,1.315,0.242,1.841-0.134c0.063-0.039,0.123-0.083,0.18-0.142
			l4.627,2.366c0.324,0.163,0.733,0.029,0.908-0.311C408.063,238.119,407.928,237.71,407.605,237.542z M346.057,208.027
			c-1.029,0.745-2.457,0.497-3.18-0.543c-0.734-1.038-0.498-2.456,0.543-3.181c1.029-0.734,2.457-0.497,3.18,0.543
			C347.334,205.864,347.096,207.304,346.057,208.027z"/>
		<g>
			<path fill="#686644" d="M242.59,266.241L242.59,266.241L242.59,266.241L242.59,266.241c-12.392,0-22.428,10.033-22.428,22.431
				c0,12.385,10.036,22.428,22.428,22.428l0,0l0,0l0,0c12.383,0,22.428-10.043,22.428-22.428
				C265.018,276.274,254.973,266.241,242.59,266.241z M245.334,307.056c-0.435-1.093-1.505-1.87-2.744-1.87
				c-1.25,0-2.318,0.777-2.753,1.87c-8.064-1.195-14.444-7.585-15.631-15.639c1.087-0.435,1.865-1.505,1.865-2.746
				c0-1.256-0.778-2.323-1.865-2.749c1.187-8.065,7.567-14.454,15.631-15.635c0.435,1.094,1.503,1.866,2.753,1.866
				c1.239,0,2.31-0.772,2.744-1.866c8.061,1.181,14.442,7.569,15.64,15.635c-1.093,0.424-1.865,1.493-1.865,2.749
				c0,1.241,0.772,2.311,1.865,2.746C259.776,299.471,253.396,305.861,245.334,307.056z"/>
			<path fill="#686644" d="M249.268,280.395l-5.146,5.145c-0.468-0.226-0.982-0.353-1.532-0.353c-1.529,0-2.828,0.987-3.3,2.356
				h-10.861v2.252h10.861c0.472,1.361,1.77,2.365,3.3,2.365c1.923,0,3.479-1.574,3.479-3.488c0-0.552-0.128-1.071-0.354-1.53
				l5.146-5.15L249.268,280.395z"/>
		</g>
		<g>
			<path fill="#686644" d="M167.002,277.635c-2.396,1.609-3.984,3.939-4.679,6.471c-2.608-0.311-5.374,0.287-7.76,1.892
				c-5.16,3.469-6.628,10.315-3.288,15.283c3.825,5.689,14.412,11.254,25.746,3.633c11.673-7.849,8.849-19.374,5.366-24.551
				C179.048,275.395,172.152,274.172,167.002,277.635z"/>
			<path fill="#686644" d="M164.101,286.395c-4.299-2.488-5.979-7.406-5.023-12.254l4.992-2.162
				C161.446,277.072,160.546,281.179,164.101,286.395z"/>
		</g>
		<g>
			<g>
				<path fill="#686644" d="M273.995,189.649l-1.873-1.47l-31.418,40.002c-2.233,2.861-6.617,3.15-9.778,0.682
					c-3.158-2.472-3.895-6.801-1.661-9.66l31.403-40.027l-1.874-1.469l-31.801,40.527c-2.983,3.774-1.988,9.53,2.206,12.826
					c4.197,3.295,10.027,2.893,13.009-0.905L273.995,189.649z"/>
				<path fill="#686644" d="M275.875,192.006c-0.602,0.751-1.686,0.883-2.449,0.295l-17.07-13.397
					c-0.75-0.602-0.881-1.689-0.296-2.46l0,0c0.603-0.752,1.687-0.882,2.437-0.294l17.084,13.414
					C276.33,190.159,276.463,191.256,275.875,192.006L275.875,192.006z"/>
			</g>
			<path fill="#686644" d="M267.378,190.633l-2.318-1.833l-28.081,35.798c-1.032,1.311-2.7,1.869-4.368,1.629
				c0.073,0.092,0.154,0.168,0.246,0.239c2.186,1.718,5.228,1.507,6.77-0.472L267.378,190.633z"/>
		</g>
		<path fill="#686644" d="M472.451,37.183c-0.861,2.03,0.096,4.384,2.126,5.249c2.03,0.864,4.397-0.079,5.265-2.124
			c0.864-2.03-0.097-4.384-2.126-5.248C475.677,34.194,473.317,35.138,472.451,37.183z M466.08,22.309
			c-2.179-0.922-6.326-2.679-6.326-2.679c-5.151-2.18-9.52-0.368-12.119,2.913l-12.637-5.361c-1.559-0.657-3.387,0.072-4.057,1.663
			c-0.683,1.573,0.078,3.403,1.636,4.077l12.639,5.346c-0.559,4.15,1.209,8.553,6.329,10.727c0,0,3.81,1.616,6.325,2.677
			c2.93,1.236,1.953,5.472,1.953,5.472l4.281,1.805l11.53-27.234l-4.267-1.804C471.368,19.912,468.985,23.532,466.08,22.309z"/>
		<path fill="#686644" d="M441.506,224.12c-1.354-1.741-3.876-2.052-5.619-0.699c-1.744,1.352-2.073,3.879-0.71,5.632
			c1.353,1.744,3.876,2.05,5.619,0.699C442.546,228.393,442.871,225.873,441.506,224.12z M457.6,225.8
			c1.866-1.454,5.42-4.221,5.42-4.221c4.413-3.437,4.958-8.135,3.358-12.003l10.836-8.426c1.333-1.041,1.587-2.993,0.524-4.353
			c-1.042-1.362-3.011-1.589-4.358-0.557l-10.824,8.435c-3.353-2.509-8.059-3.109-12.451,0.303c0,0-3.268,2.54-5.419,4.221
			c-2.506,1.956-5.729-0.959-5.729-0.959l-3.661,2.86l18.17,23.334l3.653-2.848C457.119,231.586,455.117,227.742,457.6,225.8z"/>
		<path fill="#686644" d="M376.881,58.387c-6.261,2.781-14.561,2.303-12.852-5.446c1.231-5.557,1.104-11.619-8.448-7.841
			c-17.344,6.828-32.576,47.875-0.027,50.541c17.62,1.426,30.938-12.364,33.126-24.539C390.39,61.537,384.506,54.993,376.881,58.387
			z M361.389,67.468c-2.127,0-3.847-1.593-3.847-3.584c0-1.976,1.72-3.583,3.847-3.583c2.126,0,3.86,1.607,3.86,3.583
			C365.249,65.876,363.515,67.468,361.389,67.468z"/>
		<path fill="#686644" d="M32.799,257.192c-7.214,0.002-13.062,5.85-13.062,13.058c0,4.593,2.352,8.614,5.919,10.941v10.283
			c0,3.557,2.897,6.455,6.469,6.457h1.599c3.571-0.002,6.453-2.9,6.455-6.457v-10.439c3.435-2.35,5.692-6.304,5.692-10.786
			C45.87,263.042,40.02,257.194,32.799,257.192z M38.133,279.147c-0.399,0.248-0.653,0.691-0.653,1.157v5.974h-9.125v-5.841
			c0-0.476-0.252-0.919-0.68-1.169c-3.134-1.779-5.245-5.145-5.245-9.018c0-2.855,1.159-5.451,3.04-7.33
			c1.875-1.882,4.47-3.041,7.329-3.041c2.869,0,5.458,1.159,7.344,3.041c1.873,1.879,3.026,4.475,3.026,7.33
			C43.169,274.031,41.148,277.338,38.133,279.147z M32.891,254.892c0.678,0,1.215-0.528,1.215-1.206v-5.833
			c0-0.684-0.538-1.229-1.215-1.229c-0.669,0-1.208,0.546-1.208,1.229v5.833C31.684,254.363,32.222,254.892,32.891,254.892z
			 M45.488,259.398l4.116-4.119c0.481-0.492,0.481-1.251,0-1.721c-0.465-0.469-1.242-0.469-1.706,0l-4.133,4.12
			c-0.47,0.49-0.47,1.255,0,1.72C44.244,259.866,45.002,259.866,45.488,259.398z M20.307,259.398c0.468,0.469,1.243,0.469,1.708,0
			c0.478-0.466,0.478-1.23,0-1.72l-4.117-4.12c-0.481-0.469-1.245-0.469-1.722,0c-0.47,0.469-0.47,1.229,0,1.721L20.307,259.398z
			 M20.307,281.147l-4.13,4.123c-0.47,0.465-0.47,1.252,0,1.717c0.477,0.468,1.24,0.468,1.722,0l4.117-4.121
			c0.478-0.467,0.478-1.251,0-1.719C21.548,280.678,20.775,280.678,20.307,281.147z M55.323,269.057h-5.836
			c-0.677,0-1.215,0.551-1.215,1.207c0,0.677,0.538,1.229,1.215,1.229h5.836c0.667,0,1.204-0.552,1.204-1.229
			C56.527,269.607,55.991,269.057,55.323,269.057z M45.488,281.147c-0.485-0.469-1.244-0.469-1.723,0
			c-0.47,0.468-0.47,1.252,0,1.719l4.133,4.121c0.464,0.468,1.241,0.468,1.706,0c0.481-0.465,0.481-1.252,0-1.717L45.488,281.147z
			 M17.52,270.264c0-0.656-0.551-1.207-1.213-1.207h-5.839c-0.667,0-1.204,0.551-1.204,1.207c0,0.677,0.537,1.229,1.204,1.229h5.839
			C16.97,271.492,17.52,270.94,17.52,270.264z"/>
		<path fill="#686644" d="M118.283,254.554c0.219,0.365,0.295,0.841,0.178,1.293c-0.23,0.906-1.16,1.457-2.078,1.223
			c-0.916-0.23-1.467-1.164-1.226-2.079c0.115-0.453,0.404-0.814,0.777-1.034l-2.691-0.705c0.221,0.38,0.295,0.841,0.178,1.293
			c-0.232,0.907-1.164,1.458-2.08,1.224c-0.918-0.232-1.465-1.155-1.234-2.08c0.125-0.451,0.412-0.812,0.789-1.034l-2.732-0.711
			c0.223,0.38,0.295,0.841,0.18,1.294c-0.232,0.916-1.164,1.456-2.08,1.224c-0.916-0.232-1.465-1.155-1.225-2.079
			c0.117-0.453,0.402-0.814,0.779-1.034l-2.695-0.696c0.219,0.375,0.295,0.832,0.178,1.283c-0.232,0.925-1.162,1.46-2.08,1.226
			c-0.918-0.232-1.467-1.155-1.235-2.073c0.125-0.46,0.414-0.819,0.787-1.04l-2.702-0.688c0.219,0.365,0.305,0.824,0.189,1.278
			c-0.241,0.922-1.174,1.472-2.081,1.223c-0.916-0.233-1.466-1.156-1.234-2.064c0.116-0.462,0.412-0.83,0.78-1.051l-2.695-0.687
			c0.221,0.365,0.303,0.823,0.18,1.293c-0.234,0.907-1.165,1.457-2.083,1.22c-0.907-0.246-1.455-1.168-1.223-2.076
			c0.116-0.451,0.401-0.832,0.776-1.05l-2.323-0.595l-6.544,25.418c-0.586,2.27,0.777,4.572,3.046,5.148l23.88,6.142
			c2.266,0.595,4.568-0.776,5.156-3.044l6.535-25.416L118.283,254.554z M112.715,276.018l-27.773-7.141
			c-0.202-0.045-0.336-0.258-0.282-0.469c0.055-0.211,0.269-0.338,0.481-0.287l27.771,7.139c0.215,0.063,0.338,0.275,0.283,0.487
			C113.141,275.952,112.928,276.08,112.715,276.018z M113.766,271.93l-27.763-7.156c-0.211-0.047-0.335-0.262-0.29-0.471
			c0.063-0.211,0.267-0.334,0.479-0.27l27.773,7.139c0.213,0.061,0.336,0.266,0.283,0.471
			C114.193,271.852,113.978,271.977,113.766,271.93z M114.826,267.826l-27.772-7.141c-0.212-0.049-0.335-0.264-0.282-0.469
			c0.054-0.212,0.268-0.334,0.472-0.289l27.772,7.157c0.213,0.046,0.336,0.259,0.283,0.472
			C115.244,267.766,115.029,267.889,114.826,267.826z M115.877,263.738L88.104,256.6c-0.211-0.064-0.336-0.277-0.281-0.484
			c0.053-0.2,0.268-0.338,0.479-0.276l27.766,7.14c0.211,0.058,0.344,0.262,0.291,0.47
			C116.305,263.661,116.09,263.801,115.877,263.738z"/>
		<path fill="#686644" d="M500.808,369.117c0.219,0.365,0.295,0.841,0.178,1.293c-0.23,0.906-1.16,1.457-2.078,1.223
			c-0.916-0.23-1.467-1.163-1.227-2.078c0.115-0.453,0.404-0.814,0.777-1.034l-2.691-0.704c0.221,0.38,0.295,0.84,0.178,1.293
			c-0.232,0.907-1.164,1.457-2.08,1.225c-0.918-0.232-1.465-1.155-1.234-2.08c0.125-0.451,0.412-0.813,0.789-1.035l-2.732-0.711
			c0.223,0.381,0.295,0.842,0.18,1.295c-0.232,0.916-1.164,1.456-2.08,1.224c-0.916-0.232-1.465-1.155-1.225-2.079
			c0.117-0.453,0.402-0.813,0.779-1.033l-2.695-0.696c0.219,0.374,0.295,0.831,0.178,1.283c-0.232,0.925-1.162,1.46-2.079,1.226
			c-0.918-0.232-1.467-1.154-1.236-2.072c0.125-0.461,0.414-0.82,0.787-1.041l-2.701-0.688c0.219,0.365,0.305,0.824,0.188,1.278
			c-0.241,0.923-1.175,1.472-2.081,1.223c-0.916-0.233-1.467-1.156-1.234-2.064c0.115-0.462,0.412-0.83,0.779-1.051l-2.695-0.686
			c0.221,0.365,0.303,0.823,0.18,1.294c-0.233,0.906-1.164,1.457-2.082,1.219c-0.907-0.246-1.455-1.168-1.223-2.075
			c0.115-0.451,0.4-0.831,0.775-1.05l-2.322-0.596l-6.545,25.418c-0.585,2.27,0.777,4.572,3.047,5.148l23.88,6.143
			c2.266,0.594,4.568-0.777,5.156-3.045l6.535-25.416L500.808,369.117z M495.239,390.58l-27.772-7.141
			c-0.203-0.045-0.336-0.258-0.282-0.468c0.056-0.211,0.269-0.338,0.481-0.288l27.771,7.139c0.215,0.063,0.338,0.275,0.283,0.488
			C495.665,390.516,495.452,390.643,495.239,390.58z M496.29,386.492l-27.763-7.155c-0.212-0.047-0.336-0.263-0.291-0.472
			c0.064-0.211,0.268-0.333,0.48-0.27l27.772,7.139c0.213,0.06,0.336,0.266,0.283,0.471
			C496.718,386.415,496.503,386.539,496.29,386.492z M497.351,382.389l-27.772-7.14c-0.212-0.05-0.335-0.265-0.281-0.47
			c0.053-0.211,0.268-0.334,0.471-0.288l27.772,7.157c0.213,0.045,0.336,0.258,0.283,0.471
			C497.769,382.328,497.554,382.451,497.351,382.389z M498.401,378.301l-27.773-7.139c-0.211-0.063-0.336-0.277-0.281-0.484
			c0.054-0.199,0.267-0.338,0.479-0.275l27.766,7.14c0.211,0.058,0.344,0.261,0.291,0.47
			C498.829,378.225,498.614,378.363,498.401,378.301z"/>
		<path fill-rule="evenodd" clip-rule="evenodd" fill="#686644" d="M188.613,430.764l-23.227,17.555
			c-2.766,2.073-3.286,6.019-1.207,8.764l20.309,26.878c2.082,2.764,6.02,3.314,8.77,1.245l23.227-17.554
			c2.715-2.07,3.282-6.023,1.206-8.768l-20.327-26.893C195.301,429.247,191.337,428.719,188.613,430.764z M194.97,475.058
			c0.322,0.447,0.237,1.034-0.188,1.371l-5.825,4.406c-0.429,0.329-1.036,0.239-1.365-0.19l-2.028-2.677
			c-0.317-0.434-0.237-1.037,0.191-1.366l5.834-4.387c0.429-0.332,1.032-0.244,1.365,0.19L194.97,475.058z M190.335,468.945
			c0.363,0.481,0.284,1.081-0.147,1.408l-5.831,4.391c-0.428,0.329-1.033,0.249-1.395-0.229l-1.989-2.617
			c-0.327-0.455-0.274-1.094,0.155-1.426l5.833-4.389c0.429-0.329,1.062-0.201,1.391,0.227L190.335,468.945z M185.744,462.869
			c0.328,0.428,0.262,1.069-0.167,1.398l-5.809,4.411c-0.438,0.304-1.086,0.182-1.398-0.241l-1.996-2.631
			c-0.328-0.428-0.272-1.093,0.166-1.399l5.81-4.408c0.443-0.332,1.074-0.205,1.403,0.22L185.744,462.869z M204.282,468.033
			c0.329,0.427,0.237,1.033-0.193,1.362l-5.818,4.384c-0.431,0.33-1.037,0.267-1.365-0.192l-2.017-2.652
			c-0.33-0.428-0.238-1.035,0.191-1.363l5.821-4.415c0.431-0.331,1.038-0.238,1.367,0.193L204.282,468.033z M199.654,461.9
			c0.359,0.469,0.271,1.085-0.163,1.402l-5.809,4.411c-0.447,0.33-1.049,0.242-1.407-0.225l-1.985-2.648
			c-0.33-0.428-0.268-1.072,0.163-1.395l5.81-4.411c0.436-0.317,1.084-0.186,1.393,0.225L199.654,461.9z M195.058,455.815
			c0.318,0.433,0.274,1.094-0.156,1.422l-5.832,4.39c-0.429,0.332-1.061,0.204-1.39-0.228l-1.991-2.648
			c-0.323-0.415-0.274-1.063,0.166-1.398l5.82-4.383c0.43-0.332,1.074-0.207,1.392,0.225L195.058,455.815z M213.563,461.029
			c0.319,0.403,0.245,1.03-0.206,1.343l-5.807,4.406c-0.431,0.331-1.038,0.24-1.365-0.191l-2.024-2.662
			c-0.321-0.45-0.242-1.049,0.189-1.38l5.829-4.388c0.431-0.329,1.036-0.238,1.368,0.191L213.563,461.029z M208.926,454.876
			c0.367,0.493,0.272,1.102-0.156,1.431l-5.814,4.391c-0.433,0.321-1.052,0.235-1.398-0.238l-1.991-2.617
			c-0.331-0.428-0.273-1.095,0.16-1.413l5.815-4.393c0.441-0.336,1.074-0.211,1.405,0.219L208.926,454.876z M204.338,448.813
			c0.329,0.427,0.262,1.07-0.168,1.399l-5.809,4.409c-0.43,0.329-1.074,0.207-1.413-0.246l-1.981-2.626
			c-0.327-0.428-0.264-1.067,0.168-1.399l5.809-4.406c0.43-0.33,1.075-0.209,1.41,0.23L204.338,448.813z M197.928,439.95
			c1.003,1.344,0.719,3.224-0.631,4.244l-21.454,16.202c-1.347,1.024-3.276,0.814-4.271-0.502l-3.069-4.071
			c-0.992-1.312-0.686-3.24,0.663-4.265l21.454-16.201c1.351-1.02,3.258-0.763,4.249,0.551L197.928,439.95z"/>
		<path fill="#686644" d="M464.143,283.595c0-0.56-0.362-0.84-1.087-0.84c-0.738,0-1.278,0.342-1.62,1.025l-12.036,24.32
			c-0.178,0.354-0.268,0.614-0.268,0.779c0,0.546,0.362,0.819,1.087,0.819c0.751,0,1.299-0.335,1.641-1.004l12.037-24.32
			C464.061,284.035,464.143,283.774,464.143,283.595z M453.174,293.07c0-1.463-0.644-2.611-1.929-3.445l2.83-3.014
			c0.355-0.369,0.533-0.807,0.533-1.313c0-1.025-0.697-1.537-2.092-1.537h-5.146c-0.561,0-1.036,0.171-1.426,0.513
			c-0.389,0.342-0.584,0.758-0.584,1.251c0,0.779,0.567,1.169,1.701,1.169h2.626l-1.867,2.029l-0.267,0.268
			c-0.287,0.328-0.43,0.684-0.43,1.065c0,0.603,0.376,1.018,1.128,1.251c0.997,0.328,1.496,0.958,1.496,1.887
			c0,0.778-0.25,1.473-0.748,2.081c-0.499,0.608-1.07,0.913-1.712,0.913c-0.957,0-1.436-0.41-1.436-1.231
			c0-0.15,0.047-0.396,0.144-0.738l0.082-0.287c0.067-0.231,0.103-0.451,0.103-0.656c0-0.354-0.141-0.659-0.421-0.913
			c-0.28-0.252-0.612-0.379-0.994-0.379c-0.656,0-1.21,0.308-1.661,0.923c-0.451,0.615-0.677,1.367-0.677,2.255
			c0,1.177,0.443,2.136,1.333,2.882c0.889,0.746,2.03,1.117,3.424,1.117c1.695,0,3.118-0.584,4.266-1.752
			C452.598,296.239,453.174,294.793,453.174,293.07z M470.623,295.509c0-0.52-0.194-0.955-0.585-1.312
			c-0.389-0.354-0.871-0.533-1.445-0.533c-0.916,0-1.934,0.587-3.055,1.764l-6.152,6.459l-0.472,0.492
			c-0.409,0.439-0.615,0.957-0.615,1.558c0,0.59,0.219,1.057,0.656,1.406c0.438,0.348,1.025,0.522,1.764,0.522h2.44l-0.328,0.82
			l-0.144,0.329c-0.124,0.314-0.184,0.595-0.184,0.841c0,0.86,0.465,1.292,1.395,1.292c0.942,0,1.661-0.608,2.153-1.825l0.594-1.457
			h1.149c0.724,0,1.291-0.156,1.702-0.471c0.409-0.314,0.614-0.752,0.614-1.313c0-0.779-0.567-1.169-1.701-1.169h-0.574l2.399-5.905
			C470.493,296.377,470.623,295.879,470.623,295.509z M464.369,302.913h-2.234l4.347-4.757L464.369,302.913z"/>
		<path fill="#686644" d="M240.282,28.268c-0.492-1.017-1.412-1.2-2.76-0.547l-5.212,2.525c-0.517,0.25-0.876,0.623-1.075,1.117
			c-0.2,0.495-0.189,0.971,0.033,1.428c0.365,0.754,1.085,0.871,2.161,0.349l2.886-1.398l-0.983,3.38l-0.119,0.402
			c-0.123,0.437-0.097,0.837,0.079,1.202c0.279,0.576,0.832,0.811,1.66,0.703c1.205-0.145,2.057,0.295,2.554,1.321
			c0.411,0.848,0.497,1.752,0.263,2.713c-0.235,0.961-0.709,1.615-1.422,1.959c-0.448,0.218-0.877,0.268-1.284,0.151
			c-0.405-0.116-0.71-0.382-0.911-0.797c-0.078-0.161-0.152-0.455-0.223-0.882c-0.09-0.531-0.179-0.886-0.265-1.064
			c-0.163-0.339-0.439-0.57-0.821-0.693c-0.385-0.123-0.754-0.098-1.11,0.074c-0.61,0.295-0.983,0.853-1.12,1.672
			c-0.137,0.82,0.004,1.662,0.423,2.526c0.599,1.238,1.512,2.026,2.737,2.363c1.225,0.337,2.541,0.166,3.947-0.516
			c2.179-1.054,3.377-2.782,3.598-5.179c0.131-1.413-0.088-2.709-0.658-3.887c-0.738-1.525-1.973-2.409-3.701-2.649l1.438-4.777
			C240.556,29.25,240.517,28.751,240.282,28.268z M228.599,40.079l-1.996,0.966l-0.174-2.789c-0.031-0.497-0.097-0.848-0.195-1.05
			c-0.147-0.306-0.393-0.503-0.734-0.595c-0.342-0.09-0.695-0.047-1.061,0.129c-0.77,0.374-1.121,1.15-1.052,2.33l0.216,3.427
			l-2.529,1.225c-0.67,0.325-1.129,0.717-1.377,1.177c-0.248,0.46-0.255,0.931-0.021,1.415c0.341,0.703,1.045,0.796,2.113,0.28
			l2.008-0.973l0.174,2.788c0.036,0.506,0.103,0.86,0.201,1.064c0.148,0.305,0.392,0.501,0.732,0.587
			c0.341,0.086,0.688,0.043,1.044-0.129c0.779-0.378,1.139-1.151,1.072-2.324l-0.222-3.439l2.53-1.225
			c0.668-0.325,1.126-0.716,1.369-1.173c0.244-0.459,0.249-0.929,0.015-1.412C230.37,39.654,229.667,39.562,228.599,40.079z
			 M263.767,15.348c-0.352-0.055-0.82,0.059-1.404,0.343l-4.258,2.062c-0.695,0.337-1.139,0.645-1.326,0.924
			c-0.189,0.28-0.26,0.749-0.215,1.406l0.398,6.07c0.027,0.425,0.094,0.744,0.196,0.956c0.193,0.398,0.489,0.666,0.891,0.801
			c0.4,0.136,0.804,0.104,1.21-0.092c0.306-0.148,0.559-0.359,0.76-0.634l0.631-0.87c0.209-0.301,0.459-0.521,0.747-0.66
			c0.415-0.201,0.824-0.216,1.226-0.045c0.402,0.172,0.719,0.496,0.949,0.97c0.463,0.958,0.582,1.97,0.355,3.037
			c-0.227,1.067-0.713,1.781-1.458,2.142c-0.355,0.172-0.714,0.208-1.071,0.104c-0.359-0.104-0.615-0.312-0.767-0.625
			c-0.077-0.161-0.134-0.322-0.171-0.482l-0.125-0.552c-0.053-0.237-0.119-0.439-0.201-0.609c-0.181-0.373-0.454-0.614-0.821-0.724
			c-0.367-0.11-0.755-0.067-1.161,0.131c-0.594,0.287-0.946,0.793-1.061,1.519c-0.115,0.725,0.03,1.507,0.437,2.345
			c0.55,1.136,1.402,1.869,2.556,2.2c1.154,0.331,2.363,0.19,3.625-0.422c1.73-0.837,2.881-2.171,3.453-4.002
			c0.572-1.831,0.412-3.67-0.483-5.518c-0.62-1.279-1.459-2.142-2.517-2.586c-1.058-0.446-2.145-0.397-3.264,0.145
			c-0.263,0.127-0.555,0.315-0.873,0.564l-0.174-2.788l3.357-1.626c0.695-0.336,1.164-0.75,1.408-1.24
			c0.244-0.489,0.234-1.005-0.027-1.548C264.392,15.635,264.117,15.404,263.767,15.348z M209.641,41.02
			c-1.415,0.685-2.383,1.711-2.903,3.078c-0.52,1.367-0.459,2.715,0.186,4.045c0.439,0.907,1.033,1.563,1.785,1.969
			c0.75,0.406,1.449,0.452,2.093,0.14c0.433-0.21,0.718-0.516,0.858-0.919c0.139-0.402,0.107-0.815-0.099-1.239
			c-0.135-0.28-0.388-0.55-0.754-0.813c-0.418-0.299-0.706-0.615-0.866-0.945c-0.21-0.432-0.227-0.879-0.053-1.34
			c0.175-0.461,0.49-0.802,0.947-1.024c0.441-0.213,0.891-0.247,1.348-0.103c0.457,0.145,0.785,0.425,0.987,0.84
			c0.218,0.449,0.224,0.98,0.019,1.592l-3.574,10.77c-0.214,0.638-0.207,1.19,0.018,1.655c0.214,0.442,0.539,0.718,0.975,0.831
			c0.438,0.113,0.914,0.044,1.432-0.206l6.305-3.054c0.678-0.328,1.137-0.732,1.377-1.208c0.24-0.478,0.234-0.975-0.017-1.492
			c-0.368-0.763-1.092-0.883-2.169-0.362l-3.775,1.828l2.764-8.165c0.459-1.363,0.402-2.637-0.174-3.824
			c-0.611-1.263-1.543-2.085-2.795-2.468C212.302,40.226,210.997,40.363,209.641,41.02z M253.075,30.798l-7.539,3.651
			c-0.662,0.319-1.115,0.71-1.363,1.17c-0.248,0.46-0.254,0.932-0.02,1.414c0.341,0.704,1.044,0.797,2.112,0.28l7.537-3.651
			c0.671-0.324,1.127-0.715,1.371-1.174c0.243-0.458,0.248-0.928,0.015-1.412C254.847,30.375,254.143,30.281,253.075,30.798z
			 M254.858,26.089c-0.34-0.703-1.049-0.794-2.125-0.273l-7.525,3.645c-0.67,0.325-1.129,0.717-1.377,1.177
			c-0.247,0.46-0.254,0.931-0.021,1.415c0.342,0.704,1.051,0.795,2.127,0.274l7.525-3.645c0.669-0.324,1.127-0.717,1.376-1.176
			C255.085,27.044,255.093,26.572,254.858,26.089z"/>
		<path fill-rule="evenodd" clip-rule="evenodd" fill="#686644" d="M188.9,380.542c0-2.445-3.465-4.453-5.63-5.258
			c-0.108-3.045-0.343-6.972-3.331-7.686c-3.271-0.782-5.35,2.846-6.379,3.883c-0.858-0.52-4.308-2.766-6.35-1.465
			c-3.13,1.992-2.239,7.053-2.175,7.398c-1.437,1.031-4.512,3.142-4.512,5.048c0,2.284,3.484,3.821,5.426,4.727
			c-0.01,0.13-1.115,6.031,2.398,7.008c2.561,0.711,6.429-1.644,7.47-2.784c1.005,0.89,4.977,3.067,7.252,1.575
			c2.627-1.725,2.057-7.295,1.793-7.948C186.153,383.996,188.9,382.331,188.9,380.542z M174.393,386.328
			c-3.118,0-5.645-2.527-5.645-5.645c0-3.118,2.526-5.644,5.645-5.644c3.117,0,5.645,2.525,5.645,5.644
			C180.037,383.801,177.51,386.328,174.393,386.328z"/>
		<path fill-rule="evenodd" clip-rule="evenodd" fill="#686644" d="M161.733,130.323c-0.203,0.507-0.646,4.823,1.39,6.16
			c1.764,1.157,4.842-0.532,5.62-1.22c0.807,0.882,3.805,2.708,5.789,2.156c2.722-0.755,1.864-5.329,1.857-5.431
			c1.506-0.701,4.204-1.892,4.204-3.662c0-1.477-2.382-3.113-3.496-3.912c0.05-0.269,0.741-4.19-1.685-5.734
			c-1.582-1.008-4.256,0.732-4.922,1.135c-0.798-0.803-2.407-3.615-4.942-3.009c-2.316,0.555-2.498,3.597-2.583,5.957
			c-1.677,0.623-4.361,2.18-4.361,4.073C158.604,128.224,160.732,129.514,161.733,130.323z M165.472,126.947
			c0-2.416,1.959-4.373,4.375-4.373s4.374,1.957,4.374,4.373c0,2.417-1.958,4.374-4.374,4.374S165.472,129.363,165.472,126.947z"/>
		<path fill-rule="evenodd" clip-rule="evenodd" fill="#686644" d="M174.004,237.124c-0.204,0.507-0.646,4.823,1.389,6.159
			c1.764,1.158,4.842-0.532,5.62-1.22c0.806,0.883,3.806,2.708,5.789,2.157c2.722-0.756,1.865-5.331,1.858-5.432
			c1.505-0.702,4.205-1.893,4.205-3.662c0-1.478-2.384-3.113-3.498-3.912c0.051-0.268,0.741-4.19-1.684-5.735
			c-1.583-1.008-4.258,0.732-4.922,1.135c-0.798-0.803-2.408-3.615-4.943-3.008c-2.316,0.555-2.498,3.597-2.582,5.957
			c-1.678,0.624-4.363,2.18-4.363,4.074C170.873,235.024,173.003,236.315,174.004,237.124z M177.742,233.747
			c0-2.416,1.959-4.372,4.374-4.372c2.417,0,4.375,1.956,4.375,4.372c0,2.417-1.958,4.376-4.375,4.376
			C179.701,238.123,177.742,236.164,177.742,233.747z"/>
		<path fill-rule="evenodd" clip-rule="evenodd" fill="#686644" d="M90.189,25.462c0.462,0.29,4.634,1.486,6.308-0.282
			c1.45-1.532,0.331-4.86-0.21-5.747c1.011-0.638,3.337-3.268,3.144-5.318c-0.264-2.813-4.918-2.776-5.018-2.787
			c-0.425-1.605-1.122-4.472-2.864-4.785c-1.453-0.261-3.483,1.796-4.466,2.753c-0.256-0.098-3.993-1.469-5.941,0.646
			c-1.272,1.38-0.03,4.318,0.249,5.044c-0.931,0.644-3.983,1.733-3.834,4.336c0.139,2.377,3.101,3.093,5.409,3.592
			c0.318,1.761,1.377,4.678,3.241,5.013C87.57,28.172,89.216,26.304,90.189,25.462z M87.525,21.186
			c-2.378-0.426-3.96-2.699-3.534-5.077c0.427-2.378,2.698-3.961,5.077-3.535c2.378,0.426,3.96,2.699,3.535,5.077
			C92.176,20.029,89.903,21.612,87.525,21.186z"/>
		<path fill-rule="evenodd" clip-rule="evenodd" fill="#686644" d="M16.802,100.987c0.177,0.427,2.469,3.296,4.49,2.896
			c1.75-0.347,2.608-3.192,2.67-4.069c1.01,0.055,3.904-0.621,4.774-2.13c1.196-2.069-2.033-4.323-2.097-4.38
			c0.493-1.316,1.417-3.636,0.367-4.706c-0.875-0.892-3.284-0.466-4.431-0.288c-0.128-0.192-2.036-2.969-4.416-2.464
			c-1.554,0.329-2.137,2.966-2.299,3.603c-0.959-0.012-3.598-0.755-4.769,1.114c-1.069,1.708,0.625,3.652,1.973,5.127
			c-0.644,1.372-1.342,3.903-0.219,5.047C13.666,101.575,15.717,101.092,16.802,100.987z M17.058,96.731
			c-1.433-1.459-1.41-3.802,0.048-5.234c1.459-1.432,3.802-1.411,5.234,0.048c1.433,1.458,1.412,3.803-0.048,5.234
			C20.833,98.212,18.49,98.191,17.058,96.731z"/>
		<path fill-rule="evenodd" clip-rule="evenodd" fill="#686644" d="M391.92,173.498c0.256,0.617,3.565,4.759,6.485,4.182
			c2.528-0.501,3.767-4.61,3.855-5.875c1.458,0.08,5.637-0.896,6.895-3.076c1.727-2.99-2.938-6.245-3.03-6.326
			c0.713-1.901,2.047-5.251,0.531-6.794c-1.263-1.289-4.742-0.674-6.397-0.417c-0.187-0.278-2.941-4.288-6.378-3.558
			c-2.243,0.475-3.085,4.282-3.319,5.203c-1.384-0.018-5.196-1.091-6.888,1.608c-1.544,2.466,0.902,5.274,2.849,7.404
			c-0.93,1.98-1.938,5.637-0.316,7.288C387.392,174.346,390.354,173.649,391.92,173.498z M392.29,167.352
			c-2.068-2.106-2.036-5.489,0.071-7.558c2.105-2.068,5.489-2.038,7.558,0.069c2.068,2.106,2.037,5.491-0.069,7.56
			C397.743,169.492,394.358,169.46,392.29,167.352z"/>
		<path fill-rule="evenodd" clip-rule="evenodd" fill="#686644" d="M19.28,219.776c-0.54,0.08-4.49,1.876-4.616,4.309
			c-0.109,2.106,2.902,3.911,3.89,4.236c-0.355,1.141-0.417,4.651,1.06,6.085c2.026,1.969,5.542-1.079,5.626-1.137
			c1.364,0.945,3.755,2.675,5.284,1.782c1.275-0.745,1.484-3.628,1.611-4.993c0.258-0.091,3.992-1.475,4.101-4.348
			c0.072-1.875-2.78-3.305-3.464-3.676c0.29-1.094,1.906-3.904,0.103-5.786c-1.648-1.719-4.366-0.341-6.446,0.776
			c-1.384-1.133-4.083-2.665-5.719-1.71C19.513,216.015,19.474,218.504,19.28,219.776z M24.082,221.301
			c2.086-1.219,4.764-0.516,5.983,1.57c1.218,2.086,0.518,4.764-1.569,5.983c-2.085,1.218-4.764,0.517-5.983-1.568
			C21.293,225.199,21.996,222.521,24.082,221.301z"/>
		<path fill-rule="evenodd" clip-rule="evenodd" fill="#686644" d="M278.622,244.621c-0.494-0.221-4.748-0.823-6.147,1.14
			c-1.211,1.699,0.342,4.81,0.993,5.605c-0.904,0.764-2.824,3.661-2.356,5.644c0.644,2.723,5.201,2.048,5.302,2.047
			c0.637,1.514,1.711,4.23,3.463,4.299c1.461,0.057,3.169-2.24,4.003-3.313c0.264,0.063,4.117,0.893,5.736-1.445
			c1.058-1.527-0.561-4.238-0.935-4.912c0.825-0.758,3.668-2.244,3.165-4.775c-0.461-2.313-3.463-2.607-5.795-2.782
			c-0.552-1.683-1.989-4.399-3.863-4.472C280.819,241.604,279.461,243.662,278.622,244.621z M281.82,248.449
			c2.391,0.092,4.251,2.105,4.159,4.494c-0.093,2.39-2.103,4.253-4.493,4.16c-2.391-0.093-4.253-2.104-4.162-4.494
			C277.416,250.22,279.429,248.356,281.82,248.449z"/>
		<path fill="#686644" d="M288.57,55.544c-6.128-6.233-31.513-4.554-48.473,12.12c-16.961,16.674-19.323,41.769-12.941,48.26
			c6.353,6.461,31.514,4.552,48.473-12.122C292.588,87.129,294.193,61.261,288.57,55.544z M228.419,105.007
			c-0.093-0.024-0.17-0.069-0.229-0.13c-0.113-0.115-0.167-0.285-0.126-0.454c1.367-5.601,4.852-13.493,10.826-21.468l-2.383-0.703
			c-0.446-0.131-0.701-0.599-0.569-1.046c0.133-0.446,0.6-0.702,1.046-0.57l1.47,0.435l-0.514-1.444
			c-0.157-0.438,0.072-0.92,0.511-1.076c0.438-0.156,0.92,0.072,1.076,0.51l0.748,2.101c0.753-0.945,1.542-1.891,2.368-2.831
			l-2.048-0.604c-0.446-0.132-0.702-0.6-0.569-1.047c0.131-0.446,0.6-0.7,1.046-0.568l1.47,0.433l-0.515-1.443
			c-0.156-0.438,0.072-0.92,0.511-1.077c0.436-0.156,0.92,0.072,1.075,0.511l0.697,1.956c0.718-0.766,1.458-1.528,2.226-2.283
			c0.09-0.088,0.178-0.173,0.267-0.259l-1.952-0.576c-0.446-0.132-0.7-0.6-0.568-1.047c0.132-0.446,0.6-0.7,1.046-0.57l1.471,0.436
			l-0.515-1.444c-0.156-0.438,0.072-0.92,0.51-1.076c0.438-0.157,0.919,0.071,1.076,0.511l0.737,2.07
			c0.904-0.822,1.806-1.6,2.704-2.338l-1.867-0.552c-0.444-0.131-0.7-0.6-0.568-1.046c0.132-0.447,0.599-0.701,1.045-0.57
			l1.471,0.434l-0.517-1.443c-0.154-0.438,0.073-0.92,0.511-1.077c0.438-0.156,0.921,0.072,1.077,0.511l0.784,2.203
			c0.975-0.746,1.935-1.446,2.879-2.101l-1.668-0.494c-0.444-0.131-0.699-0.599-0.568-1.044c0.134-0.446,0.6-0.701,1.048-0.569
			l1.47,0.433l-0.515-1.444c-0.157-0.438,0.07-0.918,0.511-1.074c0.437-0.158,0.919,0.072,1.075,0.51l0.798,2.245
			c1.071-0.687,2.108-1.316,3.105-1.889l-1.653-0.488c-0.446-0.133-0.701-0.601-0.57-1.047c0.133-0.447,0.601-0.701,1.045-0.57
			l1.471,0.435l-0.515-1.444c-0.154-0.438,0.072-0.919,0.51-1.076c0.439-0.157,0.922,0.072,1.077,0.51l0.871,2.443
			c1.048-0.555,2.037-1.042,2.939-1.467c6.015-2.82,11.995-4.488,16.004-4.455c0.266,0.001,0.478,0.219,0.476,0.486
			c-0.003,0.265-0.217,0.479-0.483,0.478c-3.891-0.031-10.472,1.704-17.762,5.444l1.531,0.452c0.444,0.131,0.697,0.6,0.567,1.045
			c-0.13,0.447-0.601,0.703-1.047,0.57l-1.467-0.434l0.512,1.444c0.157,0.437-0.073,0.918-0.511,1.076
			c-0.438,0.156-0.919-0.072-1.077-0.51l-0.849-2.383c-1.086,0.61-2.18,1.263-3.282,1.96l1.882,0.556
			c0.447,0.132,0.703,0.601,0.571,1.047c-0.134,0.446-0.603,0.7-1.046,0.568l-1.471-0.434l0.516,1.445
			c0.155,0.438-0.073,0.919-0.511,1.076c-0.438,0.156-0.922-0.072-1.076-0.51l-0.866-2.431c-1.037,0.706-2.073,1.452-3.106,2.238
			l1.976,0.583c0.446,0.131,0.701,0.6,0.569,1.045c-0.131,0.447-0.6,0.702-1.046,0.57l-1.471-0.435l0.516,1.444
			c0.155,0.438-0.073,0.919-0.512,1.075c-0.438,0.157-0.919-0.071-1.076-0.511l-0.822-2.306c-0.974,0.796-1.941,1.626-2.899,2.493
			l2.147,0.635c0.447,0.13,0.702,0.6,0.569,1.045c-0.131,0.446-0.6,0.702-1.046,0.569l-1.47-0.434l0.514,1.445
			c0.157,0.438-0.071,0.919-0.511,1.075c-0.438,0.156-0.918-0.072-1.074-0.51l-0.805-2.256c-0.136,0.132-0.273,0.263-0.409,0.397
			c-0.79,0.777-1.551,1.564-2.288,2.353l2.266,0.67c0.445,0.131,0.699,0.6,0.567,1.045c-0.131,0.446-0.6,0.701-1.045,0.57
			l-1.47-0.433l0.515,1.443c0.155,0.438-0.073,0.919-0.511,1.074c-0.439,0.156-0.92-0.072-1.076-0.51l-0.775-2.174
			c-0.842,0.959-1.644,1.921-2.409,2.884l2.116,0.624c0.446,0.133,0.699,0.601,0.569,1.047c-0.132,0.447-0.602,0.701-1.047,0.57
			l-1.469-0.435l0.514,1.443c0.156,0.438-0.072,0.92-0.511,1.076c-0.438,0.156-0.92-0.072-1.075-0.511l-0.644-1.804
			c-5.753,7.753-9.112,15.39-10.439,20.822C228.935,104.909,228.675,105.069,228.419,105.007z M273.774,101.915
			c-13.841,13.605-32.896,17.318-41.103,14.313c-1.173-0.43-0.8-1.538,0.264-1.571c9.508-0.3,22.146-6.469,34.579-19.106
			c14.585-14.822,18.759-29.643,19.515-36.138c0.05-0.432,0.604-0.606,0.817-0.246C291.678,65.595,288.746,87.195,273.774,101.915z"
			/>
		<path fill="#686644" d="M245.502,383.594c-3.54-2.635-3.51-6.667-1.545-10.119c-3.184,3.015-5.773,6.734-7.483,11.029
			c1.102,1.713,3.376,3.41,5.45,5.127C242.93,387.431,244.179,385.403,245.502,383.594z M238.75,397.449
			c0.669-2.273,1.939-5.264,2.537-6.465c-1.668-1.344-3.98-3.164-5.365-4.986c-0.123,0.376-0.241,0.746-0.355,1.129
			c-0.914,3.061-1.338,6.152-1.3,9.182c0.084-0.025,0.163-0.043,0.281-0.049C235.614,396.195,237.756,396.715,238.75,397.449z
			 M273.655,366.358c-10.086-3.011-20.514-0.534-28.116,5.72c-2.039,3.687-2.592,7.871,0.912,10.193
			c8.055-11.119,20.165-15.959,27.254-15.203c-11.471,0.247-19.655,7.466-26.229,15.882c8.069,4.731,13.331,2.978,20.745,1.763
			c9.707-1.588,22.113,1.338,25.263,3.084c-7.249-2.659-17.426-3.737-27.052-1.701c-5.342,1.117-12.336,2.784-19.953-1.76
			c-1.186,1.659-2.301,3.619-3.518,6.125c11.891,8.881,26.8,15.293,39.612,18.506c0.578,0.143,3.667,0.842,8.19,1.592
			c0.485,0.084-17.435-0.65-36.773-11.375c-4.173-2.313-8.171-4.857-11.576-7.306c-0.522,1.136-2.007,4.562-2.349,6.392
			c8.156,7.219,11.325,17.717,19.45,23.32c2.153,1.484,5.261,3.24,7.793,4.26c-2.235-0.553-6.209-2.229-8.715-3.928
			c-9.118-6.17-11.473-16.08-19.093-22.143c-1.207,3.682-1.297,8.83,0.813,13.975c-2.38-4.814-3.749-8.365-1.993-14.875
			c-0.845-0.744-3.365-1.662-4.027-1.555c0.551,12.707,8.966,24.217,21.76,28.035c16.176,4.824,33.232-4.465,38.092-20.754
			C299.006,388.308,289.831,371.185,273.655,366.358z"/>
		<path fill="#686644" d="M319.289,285.844c-1.647-0.005-3.294,0.631-4.532,1.906c-1.092,1.127-1.676,2.557-1.76,4.008l-0.98,1.012
			c-0.744,0.768-1.642,0.733-2.464-0.066l-0.594-0.576c0.189-0.223,0.177-0.559-0.037-0.766c-0.223-0.215-0.578-0.21-0.794,0.012
			l-0.679,0.701l-7.191-6.975l0.067-0.068c0.189-0.195,0.185-0.508-0.011-0.697c-0.195-0.19-0.508-0.184-0.697,0.011l-4.093,4.221
			c-0.189,0.195-0.185,0.507,0.011,0.696c0.196,0.19,0.508,0.186,0.697-0.01l0.067-0.07l7.19,6.974l-0.679,0.7
			c-0.216,0.223-0.211,0.578,0.012,0.795c0.214,0.207,0.55,0.209,0.768,0.014l9.9,9.602c0.548,0.531,0.406,1.145-0.009,1.572
			c-0.199,0.204-0.542,0.56-0.542,0.56c-0.506,0.521-0.493,1.354,0.027,1.858l1.392,1.349c0.521,0.506,1.354,0.493,1.858-0.028
			l0.154-0.158c0.285,0.152,0.623,0.227,0.999,0.229h-0.001l0.603,1.61c0.104,0.277,0.413,0.42,0.691,0.314l0.035-0.013l0.624,1.668
			c0.087,0.233,0.257,0.409,0.464,0.512l1.995-0.747c0.091-0.211,0.103-0.457,0.016-0.69l-0.622-1.67l0.046-0.018
			c0.277-0.103,0.419-0.413,0.315-0.689l-0.645-1.729c0.01-0.008,0.021-0.016,0.032-0.024l1.347,1.305
			c0.176,0.171,0.455,0.167,0.624-0.009l0.015-0.016l0.652,0.633l0.11-0.113l0.268,0.26l1.201-1.238l-0.268-0.26l0.11-0.114
			l-0.652-0.632l0.016-0.016c0.169-0.176,0.165-0.455-0.011-0.624l-1.34-1.3c0.008-0.012,0.016-0.023,0.025-0.035
			c-0.001,0.001-0.001,0.001-0.001,0.001l1.738,0.589c0.28,0.096,0.585-0.055,0.68-0.336l0.017-0.047l1.688,0.571
			c0.235,0.079,0.48,0.061,0.689-0.036l0.685-2.018c-0.107-0.203-0.289-0.369-0.524-0.449l-1.688-0.572l0.014-0.035
			c0.094-0.281-0.056-0.586-0.338-0.682l-1.589-0.539c-0.007-0.396-0.093-0.75-0.261-1.043l0.122-0.127
			c0.506-0.521,0.493-1.353-0.028-1.859l-1.391-1.348c-0.521-0.506-1.354-0.494-1.859,0.028c0,0-0.095,0.099-0.474,0.489
			c-0.632,0.65-1.091,0.66-1.64,0.127l-1.074-1.041l2.265-2.335c1.368-0.171,2.689-0.79,3.725-1.857
			c0.903-0.932,1.46-2.071,1.672-3.259c3.442-2.051,7.97-1.637,10.979,1.281l1.368,1.328c3.597,3.487,3.912,9.027,0.202,12.854
			l-0.37,0.383c0.274-0.38,0.24-0.912-0.102-1.242c-0.373-0.363-0.98-0.35-1.348,0.028l-15.593,16.079
			c-0.368,0.379-0.362,0.986,0.013,1.35c0.374,0.361,0.981,0.35,1.348-0.029l3.751-3.867c0.018,0.019,0.037,0.042,0.058,0.061
			l0.733,0.712c0.406,0.393,1.052,0.382,1.445-0.023l0.093-0.096l0.101,0.098c0.321,0.311,0.831,0.303,1.142-0.018l4.932-5.086
			c0.311-0.319,0.303-0.83-0.018-1.141l-0.1-0.098l0.093-0.096c0.393-0.405,0.383-1.053-0.022-1.445l-0.734-0.711
			c-0.021-0.02-0.042-0.039-0.064-0.056l1.848-1.905c-0.229,0.378,0.343,0.861,0.676,0.517l0.388-0.398
			c0.825-0.853,1.665-0.744,2.345-0.086l4.506,4.369l-3.48,3.588c-0.405-0.389-1.049-0.379-1.44,0.026l-6.242,6.436
			c-0.393,0.404-0.384,1.051,0.022,1.445l0.587,0.568c0.406,0.393,1.052,0.383,1.444-0.023l6.242-6.436
			c0.392-0.404,0.383-1.049-0.018-1.44l3.479-3.588l1.202,1.165c1.847,1.791,1.824,3.402,0.191,5.086
			c-1.635,1.686-11.796,12.164-11.796,12.164c-0.592,0.61-0.578,1.582,0.033,2.174l0.366,0.356c0.609,0.592,1.581,0.576,2.173-0.033
			l20.293-20.926c0.591-0.609,0.576-1.582-0.033-2.173l-0.367-0.356c-0.609-0.591-1.581-0.576-2.172,0.033l-0.252,0.26
			c0,0-3.984-3.865-5.799-5.624c-1.66-1.608-1.786-3.746-1.647-4.993c0.49-4.43-1.063-8.578-4.337-11.751l-4.412-4.278
			C332.249,282.924,324.82,282.334,319.289,285.844z M317.966,312.598c-0.014,0.002-0.026,0.003-0.039,0.006
			c0.013-0.003,0.025-0.006,0.038-0.008L317.966,312.598z M324.132,306.929c0,0,0,0.005-0.002,0.007
			c0.003-0.007,0.005-0.014,0.007-0.021C324.136,306.918,324.134,306.925,324.132,306.929z"/>
		<path fill="#F2F2F2" d="M100.425,247.462c0,1.723-1.397,3.12-3.121,3.12H64.711c-1.724,0-3.121-1.397-3.121-3.12l0,0
			c0-1.724,1.397-3.121,3.121-3.121h32.594C99.028,244.341,100.425,245.738,100.425,247.462L100.425,247.462z"/>
		<g>
			<rect x="69.934" y="285.273" fill="#FFAA15" width="50.379" height="208.169"/>
			<line fill="none" stroke="#FFFFFF" stroke-width="2" stroke-miterlimit="10" x1="77.986" y1="296.68" x2="115.057" y2="296.68"/>
			
				<line fill="none" stroke="#FFFFFF" stroke-width="2" stroke-miterlimit="10" x1="76.084" y1="303.306" x2="116.958" y2="303.306"/>
			<g>
				<line fill="none" stroke="#6A0000" stroke-miterlimit="10" x1="81.369" y1="312.207" x2="81.369" y2="474.749"/>
				<line fill="none" stroke="#6A0000" stroke-miterlimit="10" x1="95.627" y1="312.207" x2="95.627" y2="474.749"/>
				<line fill="none" stroke="#6A0000" stroke-miterlimit="10" x1="107.984" y1="312.207" x2="107.984" y2="474.749"/>
			</g>
			
				<line fill="none" stroke="#FFFFFF" stroke-width="2" stroke-miterlimit="10" x1="75.609" y1="482.987" x2="117.433" y2="482.987"/>
			
				<line fill="none" stroke="#FFFFFF" stroke-width="2" stroke-miterlimit="10" x1="80.361" y1="486.788" x2="112.68" y2="486.788"/>
		</g>
		<g>
			<rect x="17.759" y="280.709" fill="#746DD8" width="51.263" height="211.82"/>
			
				<line fill="none" stroke="#FFFFFF" stroke-width="2" stroke-miterlimit="10" x1="25.951" y1="292.315" x2="63.673" y2="292.315"/>
			
				<line fill="none" stroke="#FFFFFF" stroke-width="2" stroke-miterlimit="10" x1="24.017" y1="299.058" x2="65.607" y2="299.058"/>
			<g>
				
					<line fill="none" stroke="#68004D" stroke-width="2" stroke-miterlimit="10" x1="29.394" y1="308.114" x2="29.394" y2="473.509"/>
				
					<line fill="none" stroke="#68004D" stroke-width="2" stroke-miterlimit="10" x1="43.902" y1="308.114" x2="43.902" y2="473.509"/>
				
					<line fill="none" stroke="#68004D" stroke-width="2" stroke-miterlimit="10" x1="56.477" y1="308.114" x2="56.477" y2="473.509"/>
			</g>
			<line fill="none" stroke="#FFFFFF" stroke-width="2" stroke-miterlimit="10" x1="23.533" y1="481.891" x2="66.09" y2="481.891"/>
			
				<line fill="none" stroke="#FFFFFF" stroke-width="2" stroke-miterlimit="10" x1="28.369" y1="485.759" x2="61.254" y2="485.759"/>
		</g>
		<g>
			
				<rect x="191.374" y="307.475" transform="matrix(0.9547 -0.2977 0.2977 0.9547 -109.484 81.8196)" fill="#00A157" width="44.93" height="185.654"/>
			
				<line fill="none" stroke="#FFFFFF" stroke-width="2" stroke-miterlimit="10" x1="174.642" y1="325.945" x2="206.203" y2="316.104"/>
			
				<line fill="none" stroke="#FFFFFF" stroke-width="2" stroke-miterlimit="10" x1="174.781" y1="332.092" x2="209.581" y2="321.239"/>
			<g>
				<line fill="none" stroke="#6A0000" stroke-miterlimit="10" x1="181.644" y1="338.268" x2="224.802" y2="476.657"/>
				<line fill="none" stroke="#6A0000" stroke-miterlimit="10" x1="193.784" y1="334.48" x2="236.942" y2="472.87"/>
				<line fill="none" stroke="#6A0000" stroke-miterlimit="10" x1="204.306" y1="331.199" x2="247.463" y2="469.589"/>
			</g>
			
				<line fill="none" stroke="#FFFFFF" stroke-width="2" stroke-miterlimit="10" x1="222.085" y1="485.199" x2="257.694" y2="474.094"/>
			
				<line fill="none" stroke="#FFFFFF" stroke-width="2" stroke-miterlimit="10" x1="227.141" y1="487.175" x2="254.655" y2="478.594"/>
		</g>
		<g>
			<rect x="120.122" y="307.186" fill="#FF0015" width="45.298" height="187.169"/>
			
				<line fill="none" stroke="#FFFFFF" stroke-width="2" stroke-miterlimit="10" x1="127.363" y1="317.441" x2="160.692" y2="317.441"/>
			
				<line fill="none" stroke="#FFFFFF" stroke-width="2" stroke-miterlimit="10" x1="125.652" y1="323.398" x2="162.402" y2="323.398"/>
			<g>
				<line fill="none" stroke="#6A0000" stroke-miterlimit="10" x1="130.403" y1="331.401" x2="130.403" y2="477.548"/>
				<line fill="none" stroke="#6A0000" stroke-miterlimit="10" x1="143.225" y1="331.401" x2="143.225" y2="477.548"/>
				<line fill="none" stroke="#6A0000" stroke-miterlimit="10" x1="154.335" y1="331.401" x2="154.335" y2="477.548"/>
			</g>
			
				<line fill="none" stroke="#FFFFFF" stroke-width="2" stroke-miterlimit="10" x1="125.225" y1="484.954" x2="162.83" y2="484.954"/>
			
				<line fill="none" stroke="#FFFFFF" stroke-width="2" stroke-miterlimit="10" x1="129.498" y1="488.372" x2="158.557" y2="488.372"/>
		</g>
		<g>
			
				<linearGradient id="SVGID_3_" gradientUnits="userSpaceOnUse" x1="-527.5499" y1="803.8309" x2="-335.047" y2="803.8309" gradientTransform="matrix(1.1534 -0.021 -0.0041 1.1535 888.1722 -470.6426)">
				<stop  offset="0.13" style="stop-color:#EEDDC7"/>
				<stop  offset="0.87" style="stop-color:#FFFFFF"/>
			</linearGradient>
			<path fill-rule="evenodd" clip-rule="evenodd" fill="url(#SVGID_3_)" d="M287.906,441.138l210.599,2.327
				c-25.53,7.792-28.258,33.199-2.365,46.506l-207.667-2.232C270.895,484.98,274.132,440.656,287.906,441.138L287.906,441.138z"/>
			<path fill-rule="evenodd" clip-rule="evenodd" fill="#6BBE4F" d="M286.871,444.091l214.265,1.966l0.449-3.091l-215.868-3.795
				c-15.054,10.786-16.469,28.582-5.169,51.652l217.781,1.305l1.188-3.978l-214.029-4.213
				C281.283,471.409,280.226,457.695,286.871,444.091L286.871,444.091z"/>
			<g>
				<path fill-rule="evenodd" clip-rule="evenodd" fill="#D2AB67" d="M483.146,452.788c-0.347,0.399-0.674,0.805-0.985,1.218
					l-191.249-1.061c0.184-0.709,0.384-1.42,0.601-2.129L483.146,452.788L483.146,452.788z"/>
				<path fill-rule="evenodd" clip-rule="evenodd" fill="#D2AB67" d="M479.463,458.672c-0.055,0.133-0.11,0.264-0.161,0.398
					l-189.186-2.361c0.038-0.23,0.08-0.457,0.123-0.687L479.463,458.672L479.463,458.672z"/>
				<path fill-rule="evenodd" clip-rule="evenodd" fill="#D2AB67" d="M478.532,461.506c-0.09,0.37-0.166,0.742-0.233,1.117
					l-188.737-1.047c0.042-0.67,0.097-1.343,0.167-2.014L478.532,461.506L478.532,461.506z"/>
				<path fill-rule="evenodd" clip-rule="evenodd" fill="#D2AB67" d="M478.065,467.616c0.013,0.134,0.021,0.268,0.035,0.402
					l-188.62-2.355c-0.005-0.229-0.008-0.46-0.011-0.688L478.065,467.616L478.065,467.616z"/>
				<path fill-rule="evenodd" clip-rule="evenodd" fill="#D2AB67" d="M481.191,476.925c0.249,0.413,0.508,0.823,0.782,1.23
					l-191.317-2.39c-0.067-0.322-0.133-0.646-0.193-0.971l0.46-0.535L481.191,476.925L481.191,476.925z"/>
				<path fill-rule="evenodd" clip-rule="evenodd" fill="#D2AB67" d="M478.727,471.272c0.104,0.377,0.217,0.751,0.345,1.125
					l-189.157-1.037c-0.088-0.671-0.163-1.343-0.226-2.019L478.727,471.272L478.727,471.272z"/>
			</g>
			
				<linearGradient id="SVGID_4_" gradientUnits="userSpaceOnUse" x1="-891.8015" y1="795.5883" x2="-657.0081" y2="795.5883" gradientTransform="matrix(0.781 -0.0314 -8.000000e-004 0.8031 1012.7139 -244.594)">
				<stop  offset="0.12" style="stop-color:#BA4950"/>
				<stop  offset="0.88" style="stop-color:#F3726B"/>
			</linearGradient>
			<path fill-rule="evenodd" clip-rule="evenodd" fill="url(#SVGID_4_)" d="M325.028,400.978l173.941-1.649
				c-21.065,6.567-23.268,26.649-1.853,36.715l-171.522,1.673C311.071,435.832,313.648,400.825,325.028,400.978L325.028,400.978z"/>
			<path fill-rule="evenodd" clip-rule="evenodd" fill="#3EA7A0" d="M324.178,403.322l176.972-1.996l0.364-2.441l-178.3,0.577
				c-12.411,8.756-13.543,22.814-4.158,40.82l179.875-2.574l0.973-3.154l-176.783,0.217
				C319.619,424.958,318.72,414.159,324.178,403.322L324.178,403.322z"/>
			<path fill-rule="evenodd" clip-rule="evenodd" fill="#FFFFFF" d="M489.045,406.935c-0.234,0.456-0.455,0.919-0.668,1.393
				l-129.508,3.313c0.119-0.8,0.256-1.604,0.403-2.405L489.045,406.935L489.045,406.935z"/>
			<path fill-rule="evenodd" clip-rule="evenodd" fill="#FFFFFF" d="M482.515,412.611c-0.073,0.411-0.138,0.824-0.191,1.239
				l-155.887,3.216c0.032-0.737,0.077-1.483,0.135-2.227L482.515,412.611L482.515,412.611z"/>
			<path fill-rule="evenodd" clip-rule="evenodd" fill="#FFFFFF" d="M484.741,426.001c0.207,0.322,0.42,0.642,0.651,0.959
				l-158.021,1.28c-0.057-0.253-0.108-0.508-0.161-0.764l0.38-0.43L484.741,426.001L484.741,426.001z"/>
			<path fill-rule="evenodd" clip-rule="evenodd" fill="#FFFFFF" d="M482.694,420.39c0.087,0.407,0.183,0.813,0.287,1.215
				l-156.232,3.172c-0.074-0.725-0.137-1.45-0.19-2.181L482.694,420.39L482.694,420.39z"/>
			<path fill-rule="evenodd" clip-rule="evenodd" fill="#FCC26D" d="M311.433,356.54l149.334,1.232
				c-18.152,6.88-20.238,29.014-1.953,40.502l-147.254-1.158C299.112,394.778,301.668,356.173,311.433,356.54L311.433,356.54z"/>
			<path fill-rule="evenodd" clip-rule="evenodd" fill="#F36D24" d="M310.681,358.076l151.932,0.925l0.339-2.762l-159.147-0.303
				c-10.74,9.701-13.684,23.359-5.807,43.938l162.357,0.32l0.865-3.561l-151.755-2.934
				C306.557,382.517,305.89,370.264,310.681,358.076L310.681,358.076z"/>
			<path fill-rule="evenodd" clip-rule="evenodd" fill="#FFFFFF" d="M449.82,365.587c-0.248,0.535-0.483,1.078-0.708,1.629
				l-135.616-0.307c0.133-0.944,0.279-1.893,0.438-2.84L449.82,365.587L449.82,365.587z"/>
			
				<path fill-rule="evenodd" clip-rule="evenodd" fill="#FFFFFF" stroke="#FFFFFF" stroke-width="0.216" stroke-miterlimit="2.4142" d="
				M446.493,373.229c-0.065,0.436-0.12,0.88-0.172,1.323l-133.837-0.27c0.035-0.792,0.079-1.59,0.133-2.388L446.493,373.229
				L446.493,373.229z"/>
			
				<path fill-rule="evenodd" clip-rule="evenodd" fill="#FFFFFF" stroke="#FFFFFF" stroke-width="0.216" stroke-miterlimit="2.4142" d="
				M448.289,387.146c0.172,0.474,0.355,0.946,0.549,1.411l-135.66-1.794c-0.045-0.371-0.089-0.742-0.13-1.116l0.328-0.62
				L448.289,387.146L448.289,387.146z"/>
			<path fill-rule="evenodd" clip-rule="evenodd" fill="#FFFFFF" d="M446.575,380.917c0.07,0.572,0.151,1.147,0.237,1.715
				l-134.135-0.331c-0.056-1.024-0.106-2.05-0.147-3.08L446.575,380.917L446.575,380.917z"/>
			<g>
				<path fill-rule="evenodd" clip-rule="evenodd" fill="#00A651" d="M400.352,290.685c3.691,3.755,5.555,6.213,5.555,6.213
					c-2.251,5.597-10.415,6.133-14.582,2.628c-4.68-3.934-4.928-11.939-11.935-12.905
					C385.251,284.631,396.66,286.929,400.352,290.685L400.352,290.685z"/>
				<path fill-rule="evenodd" clip-rule="evenodd" fill="#6BBE4F" d="M400.383,290.125c3.718,3.256,5.461,6.849,5.461,6.849
					c-5.244,1.75-10.053,2.428-12.864,0.769c-5.012-2.961-6.57-10.386-13.58-11.271
					C385.241,284.806,396.663,286.868,400.383,290.125L400.383,290.125z"/>
				<path fill-rule="evenodd" clip-rule="evenodd" fill="#8B0304" d="M403.81,312.923c-1.393-4.85-1.067-14.199,3.677-18.111
					c0.237,1.888,1.099,2.058,1.857,2.166c-3.85,5.324-4.746,10.812-4.298,16.369C404.396,313.162,404.46,313.108,403.81,312.923
					L403.81,312.923z"/>
				<path fill-rule="evenodd" clip-rule="evenodd" fill="#969469" d="M407.503,294.824c1.111-0.113,2.175,1.021,1.827,2.164
					C407.449,297.263,406.973,295.974,407.503,294.824L407.503,294.824z"/>
				<path fill-rule="evenodd" clip-rule="evenodd" fill="#7AC256" d="M404.107,310.608c-16.714-8.766-28.627-2.866-28.551,15.462
					c0.035,8.194,2.962,17.033,10.328,22.671c13.098,10.029,17.06,4.922,17.06,4.922s5.06,3.897,11.565-0.403
					c8.849-5.855,15.064-14.622,16.321-22.984C432.929,316.339,423.301,303.893,404.107,310.608L404.107,310.608z"/>
				<path fill-rule="evenodd" clip-rule="evenodd" fill="#C7DD71" d="M404.07,311.374c-15.931-8.43-27.291-2.744-27.227,14.901
					c0.027,7.891,2.813,16.398,9.834,21.826c12.48,9.646,16.262,4.728,16.262,4.728s4.82,3.752,11.024-0.396
					c8.44-5.641,14.368-14.086,15.571-22.137C431.544,316.878,422.371,304.9,404.07,311.374L404.07,311.374z"/>
				<path fill-rule="evenodd" clip-rule="evenodd" fill="#DAE497" d="M393.019,317.296c-0.275,5.056-9.724,4.541-9.45-0.515
					C383.843,311.725,393.295,312.239,393.019,317.296L393.019,317.296z"/>
				<path fill-rule="evenodd" clip-rule="evenodd" fill="#D2E288" d="M387.256,322.573c3.247-0.154,4.198,0.472,4.31,5.619
					c0.113,5.147-1.102,8.606-3.474,9.427c-2.369,0.82-3.767-0.03-5.534-7.265C380.789,323.122,384.006,322.726,387.256,322.573
					L387.256,322.573z"/>
				<path fill-rule="evenodd" clip-rule="evenodd" fill="#A6CE39" d="M386.656,348.084c0.008,0.005,0.015,0.01,0.021,0.018
					c12.48,9.646,16.262,4.728,16.262,4.728s4.82,3.752,11.024-0.397c8.44-5.639,14.368-14.084,15.571-22.135
					c1.953-13.053-6.675-24.738-23.989-19.409c10.193,0.815,15.938,0.497,19.176,11.882c2.991,10.522-0.232,23.607-14.755,28.188
					c-2.233,0.705-7.709-2.763-11.418-0.482C395.766,352.185,389.656,349.526,386.656,348.084L386.656,348.084z"/>
				<path fill-rule="evenodd" clip-rule="evenodd" fill="#DAE497" d="M387.256,322.559c3.246-0.086,4.201,0.42,4.372,4.506
					c0.171,4.088-1.005,6.818-3.366,7.442c-2.36,0.624-3.763-0.065-5.612-5.825C380.801,322.921,384.012,322.645,387.256,322.559
					L387.256,322.559z"/>
				<path fill-rule="evenodd" clip-rule="evenodd" fill="#E9EDC6" d="M387.234,322.542c2.747-0.05,3.559,0.338,3.724,3.421
					c0.167,3.079-0.815,5.13-2.81,5.59c-1.996,0.459-3.188-0.068-4.781-4.419C381.772,322.783,384.488,322.591,387.234,322.542
					L387.234,322.542z"/>
				<path fill-rule="evenodd" clip-rule="evenodd" fill="#E9EDC6" d="M391.853,316.743c-0.206,3.78-7.271,3.396-7.065-0.383
					C384.992,312.578,392.06,312.964,391.853,316.743L391.853,316.743z"/>
			</g>
		</g>
	</g>
</g>
</svg>
